<svg width="60" height="60" viewBox="0 0 60 60" fill="none" xmlns="http://www.w3.org/2000/svg">
<g clip-path="url(#clip0_85_176)">
<path d="M27.8732 33.7315H32.821L32.4052 35.6952H24.6455C24.836 34.8818 25.1676 34.1363 25.6365 33.4658C26.1165 32.7075 27.0361 31.9088 28.3953 31.0643C29.5787 30.3316 30.3535 29.8022 30.7254 29.4871C31.2933 28.9907 31.6395 28.4503 31.764 27.8568C31.8703 27.3786 31.8208 26.9793 31.6212 26.6624C31.427 26.3437 31.0771 26.1843 30.5825 26.1843C29.9066 26.1843 29.3918 26.4389 29.0346 26.9427C28.8331 27.2339 28.6517 27.701 28.4942 28.3367H26.3271C26.5671 27.3713 26.9042 26.5928 27.3456 26.0011C28.1791 24.8672 29.3552 24.3012 30.8701 24.3012C32.07 24.3012 32.9547 24.6346 33.5189 25.2977C34.0905 25.9645 34.2535 26.8437 34.0172 27.9374C33.8377 28.7745 33.4365 29.5219 32.7972 30.1704C32.3777 30.6045 31.7311 31.0899 30.8646 31.6193L29.8406 32.2532C29.1976 32.6507 28.7562 32.9364 28.5089 33.116C28.2781 33.2936 28.0619 33.4988 27.8732 33.7315ZM33.9861 33.2552L34.4037 31.3098L40.0311 24.4276H42.5297L41.0221 31.5113H42.3044L41.9399 33.2515H40.6576L40.1447 35.6915H37.9648L38.4814 33.2515L33.9861 33.2552ZM36.0066 31.5131H38.8459L39.8827 26.6166L36.0066 31.5131ZM37.1716 52.1249C37.1789 52.1249 37.1826 52.1249 37.1899 52.1249V55.948C37.1899 58.1755 35.3691 60 33.1397 60H6.38576C4.15642 60 2.33374 58.1755 2.33374 55.948V4.05019C2.33374 1.82085 4.15642 0 6.38576 0H33.1379C35.3673 0 37.1881 1.82085 37.1881 4.05019L37.168 7.64609C48.6169 8.59315 57.6662 18.1956 57.6662 29.8864C57.6662 41.5736 48.6169 51.1779 37.1716 52.1249ZM14.9899 3.41088C14.9899 3.68199 15.2097 3.89998 15.4808 3.89998H24.0392C24.3103 3.89998 24.5319 3.68383 24.5319 3.41088C24.5319 3.13794 24.314 2.91812 24.0392 2.91812H15.4808C15.2097 2.91995 14.9899 3.13977 14.9899 3.41088ZM21.7879 55.948C21.7879 54.8269 20.8793 53.9256 19.76 53.9256C18.6444 53.9256 17.7377 54.8269 17.7377 55.948C17.7377 57.0654 18.6444 57.974 19.76 57.974C20.8793 57.974 21.7879 57.0654 21.7879 55.948ZM52.1707 29.8846C52.1707 20.6027 44.618 13.05 35.3398 13.05C34.9826 13.05 34.6675 13.083 34.3158 13.1031V7.60762C34.3048 7.60945 34.3286 7.60762 34.3158 7.60762V6.42425H5.15294V52.4986H34.3652V52.1707L34.3543 52.1671C22.4968 51.6523 13.0024 41.8703 13.0024 29.8846C13.0024 29.7582 13.0134 29.63 13.0225 29.5054H9.65193L15.6549 23.5043L21.6523 29.5017H18.5162C18.507 29.6281 18.496 29.7582 18.496 29.8846C18.496 39.1683 26.0487 46.721 35.3306 46.721C44.6162 46.7228 52.1707 39.1702 52.1707 29.8846Z" fill="#DDB565"/>
</g>
<defs>
<clipPath id="clip0_85_176">
<rect width="60" height="60" fill="white"/>
</clipPath>
</defs>
</svg>
