<svg width="60" height="61" viewBox="0 0 60 61" fill="none" xmlns="http://www.w3.org/2000/svg">
<path d="M33.084 0.5C36.4589 0.509 38.1718 0.526999 39.6507 0.568998L40.2327 0.589998C40.9046 0.613997 41.5676 0.643996 42.3686 0.679995C45.5604 0.829992 47.7383 1.33398 49.6492 2.07496C51.6291 2.83694 53.297 3.86892 54.9649 5.53388C56.4909 7.03304 57.6713 8.84721 58.4238 10.8497C59.1647 12.7607 59.6687 14.9386 59.8187 18.1336C59.8547 18.9316 59.8847 19.5945 59.9087 20.2695L59.9267 20.8515C59.9717 22.3275 59.9897 24.0404 59.9957 27.4153L59.9987 29.6533V33.5832C60.006 35.7714 59.983 37.9595 59.9297 40.147L59.9117 40.729C59.8877 41.404 59.8577 42.067 59.8217 42.865C59.6717 46.0599 59.1617 48.2348 58.4238 50.1488C57.6713 52.1513 56.4909 53.9655 54.9649 55.4647C53.4658 56.9907 51.6517 58.1712 49.6492 58.9236C47.7383 59.6646 45.5604 60.1686 42.3686 60.3186L40.2327 60.4085L39.6507 60.4265C38.1718 60.4685 36.4589 60.4895 33.084 60.4955L30.8461 60.4985H26.9193C24.7302 60.5063 22.5411 60.4833 20.3527 60.4295L19.7707 60.4115C19.0586 60.3846 18.3466 60.3536 17.6348 60.3186C14.443 60.1686 12.2651 59.6646 10.3512 58.9236C8.34978 58.1708 6.5367 56.9903 5.03845 55.4647C3.51136 53.9658 2.32992 52.1516 1.57663 50.1488C0.835665 48.2378 0.331689 46.0599 0.181697 42.865L0.0917017 40.729L0.0767028 40.147C0.0214037 37.9595 -0.0035977 35.7714 0.0017063 33.5832V27.4153C-0.00659696 25.2272 0.0154043 23.039 0.0677032 20.8515L0.088702 20.2695C0.112701 19.5945 0.142699 18.9316 0.178697 18.1336C0.32869 14.9386 0.832664 12.7637 1.57363 10.8497C2.32867 8.84639 3.5122 7.03215 5.04145 5.53388C6.53884 4.00856 8.35085 2.82816 10.3512 2.07496C12.2651 1.33398 14.44 0.829992 17.6348 0.679995C18.4328 0.643996 19.0987 0.613997 19.7707 0.589998L20.3527 0.571998C22.5401 0.518698 24.7282 0.495696 26.9163 0.503L33.084 0.5ZM30.0002 15.4996C26.0221 15.4996 22.207 17.08 19.3941 19.8929C16.5812 22.7059 15.0009 26.5211 15.0009 30.4993C15.0009 34.4774 16.5812 38.2926 19.3941 41.1056C22.207 43.9186 26.0221 45.4989 30.0002 45.4989C33.9782 45.4989 37.7934 43.9186 40.6063 41.1056C43.4192 38.2926 44.9994 34.4774 44.9994 30.4993C44.9994 26.5211 43.4192 22.7059 40.6063 19.8929C37.7934 17.08 33.9782 15.4996 30.0002 15.4996ZM30.0002 21.4995C31.182 21.4993 32.3523 21.7319 33.4443 22.184C34.5362 22.6361 35.5284 23.2988 36.3643 24.1344C37.2001 24.97 37.8632 25.962 38.3156 27.0538C38.7681 28.1456 39.001 29.3159 39.0012 30.4978C39.0014 31.6796 38.7688 32.85 38.3168 33.942C37.8647 35.0339 37.2019 36.0262 36.3664 36.862C35.5308 37.6979 34.5389 38.3609 33.4471 38.8134C32.3553 39.2659 31.185 39.4989 30.0032 39.4991C27.6164 39.4991 25.3273 38.5509 23.6396 36.8631C21.9518 35.1753 21.0036 32.8862 21.0036 30.4993C21.0036 28.1124 21.9518 25.8233 23.6396 24.1355C25.3273 22.4477 27.6164 21.4995 30.0032 21.4995M45.7524 10.9997C44.7579 10.9997 43.8041 11.3948 43.1009 12.0981C42.3977 12.8013 42.0026 13.7551 42.0026 14.7497C42.0026 15.7442 42.3977 16.698 43.1009 17.4012C43.8041 18.1045 44.7579 18.4996 45.7524 18.4996C46.7469 18.4996 47.7007 18.1045 48.4039 17.4012C49.1071 16.698 49.5022 15.7442 49.5022 14.7497C49.5022 13.7551 49.1071 12.8013 48.4039 12.0981C47.7007 11.3948 46.7469 10.9997 45.7524 10.9997Z" fill="#DDB565"/>
</svg>
