<svg width="61" height="60" viewBox="0 0 61 60" fill="none" xmlns="http://www.w3.org/2000/svg">
<path d="M30.5 0C13.94 0 0.5 13.44 0.5 30C0.5 46.56 13.94 60 30.5 60C47.06 60 60.5 46.56 60.5 30C60.5 13.44 47.06 0 30.5 0ZM44.42 20.4C43.97 25.14 42.02 36.66 41.03 41.97C40.61 44.22 39.77 44.97 38.99 45.06C37.25 45.21 35.93 43.92 34.25 42.81C31.61 41.07 30.11 39.99 27.56 38.31C24.59 36.36 26.51 35.28 28.22 33.54C28.67 33.09 36.35 26.1 36.5 25.47C36.5208 25.3746 36.5181 25.2755 36.4919 25.1814C36.4658 25.0873 36.4171 25.001 36.35 24.93C36.17 24.78 35.93 24.84 35.72 24.87C35.45 24.93 31.25 27.72 23.06 33.24C21.86 34.05 20.78 34.47 19.82 34.44C18.74 34.41 16.7 33.84 15.17 33.33C13.28 32.73 11.81 32.4 11.93 31.35C11.99 30.81 12.74 30.27 14.15 29.7C22.91 25.89 28.73 23.37 31.64 22.17C39.98 18.69 41.69 18.09 42.83 18.09C43.07 18.09 43.64 18.15 44 18.45C44.3 18.69 44.39 19.02 44.42 19.26C44.39 19.44 44.45 19.98 44.42 20.4Z" fill="#DDB565"/>
</svg>
