<svg width="60" height="60" viewBox="0 0 60 60" fill="none" xmlns="http://www.w3.org/2000/svg">
<path fill-rule="evenodd" clip-rule="evenodd" d="M30 3.125C44.8425 3.125 56.875 15.1575 56.875 30C56.875 44.8425 44.8425 56.875 30 56.875C25.35 56.875 20.975 55.6925 17.1575 53.6125L5.30751 55.6C5.01544 55.6487 4.71597 55.6276 4.43363 55.5383C4.1513 55.4491 3.89412 55.2942 3.68315 55.0864C3.47219 54.8786 3.31344 54.6238 3.2199 54.3428C3.12637 54.0619 3.1007 53.7628 3.14501 53.47L5.14501 40.245C3.8052 36.9959 3.11879 33.5145 3.12501 30C3.12501 15.1575 15.1575 3.125 30 3.125ZM19.8575 16.75C18.02 16.75 16.4975 18.3 16.7825 20.215C17.3225 23.805 18.9175 30.42 23.6625 35.2C28.6225 40.1975 35.72 42.335 39.5625 43.1775C41.5525 43.615 43.25 42.04 43.25 40.0975V35.5375C43.2501 35.386 43.2042 35.238 43.1186 35.1131C43.0329 34.9881 42.9114 34.892 42.77 34.8375L37.87 32.955C37.7378 32.9044 37.5939 32.8923 37.455 32.92L32.5125 33.885C29.325 32.235 27.395 30.385 26.2375 27.5975L27.1675 22.56C27.1924 22.426 27.1803 22.2877 27.1325 22.16L25.295 17.2375C25.2417 17.0947 25.1461 16.9716 25.0211 16.8845C24.896 16.7975 24.7474 16.7505 24.595 16.75H19.8575Z" fill="#DDB565"/>
</svg>
