<svg width="50" height="50" viewBox="0 0 50 50" fill="none" xmlns="http://www.w3.org/2000/svg">
<path d="M25.1184 31.4294L28.3321 34.6431L37.9775 24.9999L28.3344 15.3567L25.1207 18.5726L29.273 22.7271H12.1434V27.2726H29.273L25.1184 31.4294Z" fill="#DDB565"/>
<path fill-rule="evenodd" clip-rule="evenodd" d="M42.6773 42.6773C52.4409 32.9136 52.4409 17.0864 42.6773 7.32273C32.9136 -2.44091 17.0864 -2.44091 7.32273 7.32273C-2.44091 17.0864 -2.44091 32.9136 7.32273 42.6773C17.0864 52.4409 32.9136 52.4409 42.6773 42.6773ZM39.4636 39.4636C43.2996 35.6276 45.4547 30.4249 45.4547 25C45.4547 19.5751 43.2996 14.3724 39.4636 10.5364C35.6276 6.70037 30.4249 4.54533 25 4.54533C19.5751 4.54533 14.3724 6.70037 10.5364 10.5364C6.70037 14.3724 4.54533 19.5751 4.54533 25C4.54533 30.4249 6.70037 35.6276 10.5364 39.4636C14.3724 43.2996 19.5751 45.4547 25 45.4547C30.4249 45.4547 35.6276 43.2996 39.4636 39.4636Z" fill="#DDB565"/>
</svg>
