<svg width="40" height="40" viewBox="0 0 40 40" fill="none" xmlns="http://www.w3.org/2000/svg">
<path d="M25.1436 19.9054L27.7145 17.3345L19.9999 9.61816L12.2854 17.3327L14.8581 19.9036L18.1818 16.5818V30.2854H21.8181V16.5818L25.1436 19.9054Z" fill="#DDB565"/>
<path fill-rule="evenodd" clip-rule="evenodd" d="M34.1418 5.85818C26.3309 -1.95273 13.6691 -1.95273 5.85818 5.85818C-1.95273 13.6691 -1.95273 26.3309 5.85818 34.1418C13.6691 41.9527 26.3309 41.9527 34.1418 34.1418C41.9527 26.3309 41.9527 13.6691 34.1418 5.85818ZM31.5709 8.42909C28.5021 5.3603 24.3399 3.63626 20 3.63626C15.6601 3.63626 11.4979 5.3603 8.42909 8.42909C5.3603 11.4979 3.63626 15.6601 3.63626 20C3.63626 24.3399 5.3603 28.5021 8.42909 31.5709C11.4979 34.6397 15.6601 36.3637 20 36.3637C24.3399 36.3637 28.5021 34.6397 31.5709 31.5709C34.6397 28.5021 36.3637 24.3399 36.3637 20C36.3637 15.6601 34.6397 11.4979 31.5709 8.42909Z" fill="#DDB565"/>
</svg>
