<svg width="40" height="40" viewBox="0 0 40 40" fill="none" xmlns="http://www.w3.org/2000/svg">
<path fill-rule="evenodd" clip-rule="evenodd" d="M20 3.33301C10.795 3.33301 3.33334 10.7947 3.33334 19.9997C3.33334 29.2047 10.795 36.6663 20 36.6663C29.205 36.6663 36.6667 29.2047 36.6667 19.9997C36.6667 10.7947 29.205 3.33301 20 3.33301ZM15 19.9997C15.0001 18.9841 15.3095 17.9927 15.8869 17.1572C16.4643 16.3218 17.2825 15.682 18.2325 15.323C19.1825 14.964 20.2193 14.9028 21.2049 15.1475C22.1905 15.3923 23.0783 15.9313 23.75 16.693C24.0426 17.0245 24.455 17.2262 24.8963 17.2537C25.3376 17.2812 25.7718 17.1323 26.1033 16.8397C26.4349 16.5471 26.6366 16.1347 26.6641 15.6934C26.6916 15.252 26.5426 14.8179 26.25 14.4863C25.1303 13.217 23.6507 12.3186 22.0079 11.9109C20.3651 11.5032 18.6371 11.6053 17.0539 12.2038C15.4706 12.8023 14.1071 13.8688 13.1448 15.2613C12.1826 16.6537 11.6671 18.3062 11.6671 19.9988C11.6671 21.6915 12.1826 23.344 13.1448 24.7364C14.1071 26.1289 15.4706 27.1953 17.0539 27.7938C18.6371 28.3923 20.3651 28.4945 22.0079 28.0868C23.6507 27.679 25.1303 26.7807 26.25 25.5113C26.3948 25.3472 26.5058 25.1561 26.5768 24.9491C26.6477 24.742 26.6772 24.523 26.6635 24.3045C26.6498 24.0861 26.5932 23.8725 26.4969 23.6759C26.4007 23.4793 26.2667 23.3036 26.1025 23.1588C25.9384 23.0141 25.7473 22.903 25.5402 22.8321C25.3332 22.7611 25.1142 22.7317 24.8957 22.7454C24.6773 22.7591 24.4636 22.8157 24.2671 22.9119C24.0705 23.0082 23.8948 23.1422 23.75 23.3063C23.0783 24.068 22.1905 24.6071 21.2049 24.8518C20.2193 25.0965 19.1825 25.0353 18.2325 24.6763C17.2825 24.3173 16.4643 23.6775 15.8869 22.8421C15.3095 22.0067 15.0001 21.0152 15 19.9997Z" fill="#DDB565"/>
</svg>
