<svg width="40" height="40" viewBox="0 0 40 40" fill="none" xmlns="http://www.w3.org/2000/svg">
<path d="M18.1315 7.34128C13.2107 10.4921 10.7502 14.2867 10.7502 18.725C10.7502 20.1059 10.9907 20.7963 11.4715 20.7963L11.9665 20.6625C12.3557 20.5125 12.6707 20.4375 12.9115 20.4375C14.3215 20.4375 15.4986 20.95 16.4427 21.975C17.3869 23 17.8594 24.265 17.8602 25.77C17.8594 27.2167 17.349 28.4446 16.329 29.4538C15.309 30.4621 14.079 30.9663 12.639 30.9663C10.629 30.9663 8.97065 30.14 7.66399 28.4875C6.36065 26.8375 5.70899 24.7638 5.70899 22.2663C5.70815 19.4413 6.26232 16.8567 7.37149 14.5125C8.48315 12.1692 10.1782 10.0505 12.4565 8.15628C14.7365 6.26378 16.1915 5.31712 16.8215 5.31628C17.2415 5.31628 17.5865 5.51878 17.8565 5.92378C18.1265 6.32795 18.2615 6.68003 18.2615 6.98003L18.1277 7.34003L18.1315 7.34128ZM34.3315 7.34128C29.4107 10.4913 26.9507 14.2863 26.9515 18.7263C26.9515 20.1071 27.1919 20.7975 27.6727 20.7975L28.1677 20.6638C28.5569 20.5138 28.8719 20.4388 29.1127 20.4388C30.4927 20.4388 31.6623 20.9513 32.6215 21.9763C33.5823 22.9996 34.0623 24.2646 34.0615 25.7713C34.0607 27.218 33.5502 28.4459 32.5302 29.455C31.5102 30.4634 30.2802 30.9675 28.8402 30.9675C26.8302 30.9675 25.1719 30.1413 23.8652 28.4888C22.5619 26.8388 21.9102 24.765 21.9102 22.2675C21.9086 19.4125 22.4711 16.8059 23.5977 14.4475C24.7227 12.0884 26.4173 9.97712 28.6815 8.11378C30.9498 6.24962 32.3977 5.31753 33.0252 5.31753C33.4461 5.31753 33.7919 5.52003 34.0627 5.92503C34.3319 6.33003 34.4665 6.68253 34.4665 6.98253L34.3315 7.34128Z" fill="#DDB565"/>
</svg>
