<svg xmlns="http://www.w3.org/2000/svg" version="1.1" xmlns:xlink="http://www.w3.org/1999/xlink" width="100" height="100"><svg width="100" height="100" viewBox="0 0 100 100" fill="none" xmlns="http://www.w3.org/2000/svg">
<circle cx="50" cy="50" r="49" fill="#041F34" stroke="#DDB565" stroke-width="2"></circle>
<line x1="15" y1="54.5" x2="86.5385" y2="54.5" stroke="#DDB565"></line>
<path d="M20.2973 69C20.2706 69 20.2573 68.984 20.2573 68.952C20.2573 68.92 20.2706 68.904 20.2973 68.904C20.4466 68.904 20.5719 68.8747 20.6733 68.816C20.7746 68.7573 20.8733 68.6533 20.9693 68.504C21.0653 68.3493 21.1799 68.1227 21.3133 67.824L23.0333 63.952C23.0439 63.936 23.0679 63.928 23.1053 63.928C23.1426 63.928 23.1639 63.936 23.1693 63.952L25.1293 67.904C25.3106 68.288 25.4626 68.552 25.5853 68.696C25.7133 68.8347 25.8519 68.904 26.0013 68.904C26.0226 68.904 26.0333 68.92 26.0333 68.952C26.0333 68.984 26.0226 69 26.0013 69C25.8999 69 25.7373 68.9947 25.5133 68.984C25.2893 68.9733 25.1266 68.968 25.0253 68.968C24.8919 68.968 24.7346 68.9733 24.5533 68.984C24.3719 68.9947 24.2306 69 24.1293 69C24.1079 69 24.0973 68.984 24.0973 68.952C24.0973 68.92 24.1079 68.904 24.1293 68.904C24.2893 68.904 24.4039 68.888 24.4733 68.856C24.5426 68.8187 24.5773 68.76 24.5773 68.68C24.5773 68.6 24.5319 68.464 24.4413 68.272L22.7693 64.872L23.0973 64.336L21.5133 67.904C21.4439 68.064 21.4093 68.208 21.4093 68.336C21.4093 68.5227 21.4759 68.664 21.6093 68.76C21.7426 68.856 21.9293 68.904 22.1693 68.904C22.1959 68.904 22.2093 68.92 22.2093 68.952C22.2093 68.984 22.1959 69 22.1693 69C22.0733 69 21.9346 68.9947 21.7533 68.984C21.5506 68.9733 21.3746 68.968 21.2253 68.968C21.0813 68.968 20.9133 68.9733 20.7213 68.984C20.5506 68.9947 20.4093 69 20.2973 69ZM27.6968 66.84H29.9368L29.9928 67.04H27.5928L27.6968 66.84ZM31.8488 68.904C31.8701 68.904 31.8808 68.92 31.8808 68.952C31.8808 68.984 31.8701 69 31.8488 69C31.7474 69 31.5848 68.9947 31.3608 68.984C31.1368 68.9733 30.9741 68.968 30.8728 68.968C30.7394 68.968 30.5821 68.9733 30.4008 68.984C30.2194 68.9947 30.0781 69 29.9768 69C29.9554 69 29.9448 68.984 29.9448 68.952C29.9448 68.92 29.9554 68.904 29.9768 68.904C30.1368 68.904 30.2514 68.888 30.3208 68.856C30.3901 68.8187 30.4248 68.76 30.4248 68.68C30.4248 68.6 30.3794 68.464 30.2888 68.272L28.6168 64.872L28.9448 64.336L27.3608 67.904C27.2914 68.064 27.2568 68.208 27.2568 68.336C27.2568 68.5227 27.3234 68.664 27.4568 68.76C27.5901 68.856 27.7768 68.904 28.0168 68.904C28.0434 68.904 28.0568 68.92 28.0568 68.952C28.0568 68.984 28.0434 69 28.0168 69C27.9208 69 27.7821 68.9947 27.6008 68.984C27.3981 68.9733 27.2221 68.968 27.0728 68.968C26.9288 68.968 26.7608 68.9733 26.5688 68.984C26.3981 68.9947 26.2568 69 26.1448 69C26.1181 69 26.1048 68.984 26.1048 68.952C26.1048 68.92 26.1181 68.904 26.1448 68.904C26.2941 68.904 26.4194 68.8747 26.5208 68.816C26.6221 68.7573 26.7208 68.6533 26.8168 68.504C26.9128 68.3493 27.0274 68.1227 27.1608 67.824L28.8808 63.952C28.8914 63.936 28.9154 63.928 28.9528 63.928C28.9901 63.928 29.0114 63.936 29.0168 63.952L30.9768 67.904C31.1581 68.288 31.3101 68.552 31.4328 68.696C31.5608 68.8347 31.6994 68.904 31.8488 68.904ZM34.5123 69.032C34.3736 69.032 34.2029 69.024 34.0003 69.008C33.9256 69.0027 33.8296 68.9973 33.7123 68.992C33.6003 68.9867 33.4749 68.984 33.3363 68.984L32.7603 68.992C32.6589 68.9973 32.5203 69 32.3443 69C32.3283 69 32.3203 68.984 32.3203 68.952C32.3203 68.92 32.3283 68.904 32.3443 68.904C32.5256 68.904 32.6563 68.8907 32.7363 68.864C32.8216 68.8373 32.8803 68.7867 32.9123 68.712C32.9443 68.632 32.9603 68.512 32.9603 68.352V64.648C32.9603 64.488 32.9443 64.3707 32.9123 64.296C32.8856 64.2213 32.8296 64.1707 32.7443 64.144C32.6589 64.112 32.5283 64.096 32.3523 64.096C32.3416 64.096 32.3363 64.08 32.3363 64.048C32.3363 64.016 32.3416 64 32.3523 64H35.6323C35.6963 64 35.7363 64.0107 35.7523 64.032C35.7683 64.048 35.7763 64.0933 35.7763 64.168L35.8563 65.312C35.8563 65.328 35.8429 65.336 35.8163 65.336C35.7896 65.336 35.7709 65.328 35.7603 65.312C35.6909 64.944 35.5549 64.664 35.3523 64.472C35.1549 64.2747 34.9096 64.176 34.6163 64.176H34.2323C34.0296 64.176 33.8936 64.2107 33.8243 64.28C33.7603 64.3493 33.7283 64.488 33.7283 64.696V68.352C33.7283 68.5227 33.7683 68.648 33.8483 68.728C33.9336 68.808 34.1043 68.848 34.3603 68.848C34.7389 68.848 35.0136 68.7547 35.1843 68.568C35.3603 68.3813 35.4483 68.1013 35.4483 67.728C35.4483 67.264 35.3309 66.9227 35.0963 66.704C34.8669 66.4853 34.5416 66.376 34.1203 66.376C33.9549 66.376 33.7149 66.4053 33.4003 66.464L33.3683 66.296C33.6989 66.216 34.0323 66.176 34.3683 66.176C34.9229 66.176 35.3763 66.288 35.7283 66.512C36.0803 66.736 36.2563 67.0747 36.2563 67.528C36.2563 67.816 36.1816 68.0747 36.0323 68.304C35.8829 68.5333 35.6749 68.712 35.4083 68.84C35.1469 68.968 34.8483 69.032 34.5123 69.032ZM39.7525 69.096C39.2565 69.096 38.8139 68.9813 38.4245 68.752C38.0405 68.5173 37.7419 68.2027 37.5285 67.808C37.3205 67.408 37.2165 66.9733 37.2165 66.504C37.2165 65.9547 37.3552 65.4853 37.6325 65.096C37.9099 64.7013 38.2645 64.4053 38.6965 64.208C39.1339 64.0107 39.5792 63.912 40.0325 63.912C40.5392 63.912 40.9845 64.032 41.3685 64.272C41.7525 64.5067 42.0459 64.8187 42.2485 65.208C42.4565 65.5973 42.5605 66.0107 42.5605 66.448C42.5605 66.9333 42.4325 67.3787 42.1765 67.784C41.9205 68.1893 41.5765 68.5093 41.1445 68.744C40.7179 68.9787 40.2539 69.096 39.7525 69.096ZM40.0245 68.904C40.3445 68.904 40.6299 68.8187 40.8805 68.648C41.1365 68.472 41.3365 68.216 41.4805 67.88C41.6299 67.544 41.7045 67.144 41.7045 66.68C41.7045 66.184 41.6219 65.744 41.4565 65.36C41.2965 64.9707 41.0645 64.6667 40.7605 64.448C40.4619 64.2293 40.1099 64.12 39.7045 64.12C39.1819 64.12 38.7792 64.3067 38.4965 64.68C38.2139 65.048 38.0725 65.56 38.0725 66.216C38.0725 66.728 38.1552 67.1893 38.3205 67.6C38.4859 68.0053 38.7179 68.3253 39.0165 68.56C39.3152 68.7893 39.6512 68.904 40.0245 68.904ZM44.7735 68.32C44.7735 68.4907 44.7922 68.616 44.8295 68.696C44.8722 68.7707 44.9495 68.824 45.0615 68.856C45.1789 68.888 45.3602 68.904 45.6055 68.904C45.6215 68.904 45.6295 68.92 45.6295 68.952C45.6295 68.984 45.6215 69 45.6055 69C45.3869 69 45.2162 68.9973 45.0935 68.992L44.3975 68.984L43.8215 68.992C43.7202 68.9973 43.5815 69 43.4055 69C43.3895 69 43.3815 68.984 43.3815 68.952C43.3815 68.92 43.3895 68.904 43.4055 68.904C43.5869 68.904 43.7175 68.8907 43.7975 68.864C43.8829 68.8373 43.9389 68.7867 43.9655 68.712C43.9975 68.632 44.0135 68.512 44.0135 68.352V64.648C44.0135 64.488 43.9975 64.3707 43.9655 64.296C43.9389 64.2213 43.8829 64.1707 43.7975 64.144C43.7122 64.112 43.5815 64.096 43.4055 64.096C43.3895 64.096 43.3815 64.08 43.3815 64.048C43.3815 64.016 43.3895 64 43.4055 64L43.8215 64.008C44.0562 64.0187 44.2455 64.024 44.3895 64.024C44.5122 64.024 44.6615 64.016 44.8375 64C44.9015 63.9947 44.9869 63.9893 45.0935 63.984C45.2055 63.9787 45.3362 63.976 45.4855 63.976C46.0082 63.976 46.4242 64.088 46.7335 64.312C47.0429 64.536 47.1975 64.88 47.1975 65.344C47.1975 65.68 47.1095 65.9653 46.9335 66.2C46.7629 66.4347 46.5415 66.6107 46.2695 66.728C46.0029 66.8453 45.7282 66.904 45.4455 66.904C45.2962 66.904 45.1682 66.8907 45.0615 66.864C45.0509 66.864 45.0455 66.8507 45.0455 66.824C45.0455 66.808 45.0482 66.792 45.0535 66.776C45.0642 66.76 45.0749 66.7547 45.0855 66.76C45.1655 66.7813 45.2589 66.792 45.3655 66.792C45.6429 66.792 45.8775 66.6773 46.0695 66.448C46.2615 66.2187 46.3575 65.8907 46.3575 65.464C46.3575 65.0427 46.2589 64.7173 46.0615 64.488C45.8695 64.2533 45.5975 64.136 45.2455 64.136C45.1175 64.136 45.0189 64.1493 44.9495 64.176C44.8855 64.2027 44.8402 64.2533 44.8135 64.328C44.7869 64.3973 44.7735 64.5093 44.7735 64.664V68.32ZM48.7665 66.84H51.0065L51.0625 67.04H48.6625L48.7665 66.84ZM52.9185 68.904C52.9398 68.904 52.9505 68.92 52.9505 68.952C52.9505 68.984 52.9398 69 52.9185 69C52.8171 69 52.6545 68.9947 52.4305 68.984C52.2065 68.9733 52.0438 68.968 51.9425 68.968C51.8091 68.968 51.6518 68.9733 51.4705 68.984C51.2891 68.9947 51.1478 69 51.0465 69C51.0251 69 51.0145 68.984 51.0145 68.952C51.0145 68.92 51.0251 68.904 51.0465 68.904C51.2065 68.904 51.3211 68.888 51.3905 68.856C51.4598 68.8187 51.4945 68.76 51.4945 68.68C51.4945 68.6 51.4491 68.464 51.3585 68.272L49.6865 64.872L50.0145 64.336L48.4305 67.904C48.3611 68.064 48.3265 68.208 48.3265 68.336C48.3265 68.5227 48.3931 68.664 48.5265 68.76C48.6598 68.856 48.8465 68.904 49.0865 68.904C49.1131 68.904 49.1265 68.92 49.1265 68.952C49.1265 68.984 49.1131 69 49.0865 69C48.9905 69 48.8518 68.9947 48.6705 68.984C48.4678 68.9733 48.2918 68.968 48.1425 68.968C47.9985 68.968 47.8305 68.9733 47.6385 68.984C47.4678 68.9947 47.3265 69 47.2145 69C47.1878 69 47.1745 68.984 47.1745 68.952C47.1745 68.92 47.1878 68.904 47.2145 68.904C47.3638 68.904 47.4891 68.8747 47.5905 68.816C47.6918 68.7573 47.7905 68.6533 47.8865 68.504C47.9825 68.3493 48.0971 68.1227 48.2305 67.824L49.9505 63.952C49.9611 63.936 49.9851 63.928 50.0225 63.928C50.0598 63.928 50.0811 63.936 50.0865 63.952L52.0465 67.904C52.2278 68.288 52.3798 68.552 52.5025 68.696C52.6305 68.8347 52.7691 68.904 52.9185 68.904ZM54.1955 64.168C53.8701 64.168 53.6035 64.2693 53.3955 64.472C53.1875 64.6693 53.0275 64.968 52.9155 65.368C52.9155 65.384 52.8995 65.392 52.8675 65.392C52.8408 65.3867 52.8275 65.3787 52.8275 65.368C52.8488 65.16 52.8728 64.8933 52.8995 64.568C52.9261 64.2373 52.9395 63.9893 52.9395 63.824C52.9395 63.7973 52.9528 63.784 52.9795 63.784C53.0115 63.784 53.0275 63.7973 53.0275 63.824C53.0275 63.9413 53.1768 64 53.4755 64C53.9341 64.016 54.4701 64.024 55.0835 64.024C55.3981 64.024 55.7315 64.0187 56.0835 64.008L56.6275 64C56.8301 64 56.9768 63.9867 57.0675 63.96C57.1635 63.9333 57.2248 63.88 57.2515 63.8C57.2568 63.7787 57.2728 63.768 57.2995 63.768C57.3261 63.768 57.3395 63.7787 57.3395 63.8C57.3235 63.9653 57.3075 64.216 57.2915 64.552C57.2755 64.888 57.2675 65.16 57.2675 65.368C57.2675 65.3787 57.2515 65.384 57.2195 65.384C57.1928 65.384 57.1768 65.3787 57.1715 65.368C57.1181 64.9573 56.9928 64.656 56.7955 64.464C56.5981 64.2667 56.3315 64.168 55.9955 64.168C55.8461 64.168 55.7341 64.1813 55.6595 64.208C55.5901 64.2347 55.5421 64.2827 55.5155 64.352C55.4888 64.416 55.4755 64.52 55.4755 64.664V68.352C55.4755 68.512 55.4915 68.632 55.5235 68.712C55.5608 68.7867 55.6275 68.8373 55.7235 68.864C55.8195 68.8907 55.9715 68.904 56.1795 68.904C56.1955 68.904 56.2035 68.92 56.2035 68.952C56.2035 68.984 56.1955 69 56.1795 69C55.9928 69 55.8461 68.9973 55.7395 68.992L55.0835 68.984L54.4595 68.992C54.3475 68.9973 54.1928 69 53.9955 69C53.9848 69 53.9795 68.984 53.9795 68.952C53.9795 68.92 53.9848 68.904 53.9955 68.904C54.2035 68.904 54.3555 68.8907 54.4515 68.864C54.5528 68.8373 54.6195 68.7867 54.6515 68.712C54.6888 68.632 54.7075 68.512 54.7075 68.352V64.648C54.7075 64.5093 54.6941 64.408 54.6675 64.344C54.6408 64.2747 54.5928 64.2293 54.5235 64.208C54.4541 64.1813 54.3448 64.168 54.1955 64.168ZM60.5957 69.096C60.0997 69.096 59.657 68.9813 59.2677 68.752C58.8837 68.5173 58.585 68.2027 58.3717 67.808C58.1637 67.408 58.0597 66.9733 58.0597 66.504C58.0597 65.9547 58.1983 65.4853 58.4757 65.096C58.753 64.7013 59.1077 64.4053 59.5397 64.208C59.977 64.0107 60.4223 63.912 60.8757 63.912C61.3823 63.912 61.8277 64.032 62.2117 64.272C62.5957 64.5067 62.889 64.8187 63.0917 65.208C63.2997 65.5973 63.4037 66.0107 63.4037 66.448C63.4037 66.9333 63.2757 67.3787 63.0197 67.784C62.7637 68.1893 62.4197 68.5093 61.9877 68.744C61.561 68.9787 61.097 69.096 60.5957 69.096ZM60.8677 68.904C61.1877 68.904 61.473 68.8187 61.7237 68.648C61.9797 68.472 62.1797 68.216 62.3237 67.88C62.473 67.544 62.5477 67.144 62.5477 66.68C62.5477 66.184 62.465 65.744 62.2997 65.36C62.1397 64.9707 61.9077 64.6667 61.6037 64.448C61.305 64.2293 60.953 64.12 60.5477 64.12C60.025 64.12 59.6223 64.3067 59.3397 64.68C59.057 65.048 58.9157 65.56 58.9157 66.216C58.9157 66.728 58.9983 67.1893 59.1637 67.6C59.329 68.0053 59.561 68.3253 59.8597 68.56C60.1583 68.7893 60.4943 68.904 60.8677 68.904ZM65.6167 68.32C65.6167 68.4907 65.6353 68.616 65.6727 68.696C65.7153 68.7707 65.7927 68.824 65.9047 68.856C66.022 68.888 66.2033 68.904 66.4487 68.904C66.4647 68.904 66.4727 68.92 66.4727 68.952C66.4727 68.984 66.4647 69 66.4487 69C66.23 69 66.0593 68.9973 65.9367 68.992L65.2407 68.984L64.6647 68.992C64.5633 68.9973 64.4247 69 64.2487 69C64.2327 69 64.2247 68.984 64.2247 68.952C64.2247 68.92 64.2327 68.904 64.2487 68.904C64.43 68.904 64.5607 68.8907 64.6407 68.864C64.726 68.8373 64.782 68.7867 64.8087 68.712C64.8407 68.632 64.8567 68.512 64.8567 68.352V64.648C64.8567 64.488 64.8407 64.3707 64.8087 64.296C64.782 64.2213 64.726 64.1707 64.6407 64.144C64.5553 64.112 64.4247 64.096 64.2487 64.096C64.2327 64.096 64.2247 64.08 64.2247 64.048C64.2247 64.016 64.2327 64 64.2487 64L64.6647 64.008C64.8993 64.0187 65.0887 64.024 65.2327 64.024C65.3553 64.024 65.5047 64.016 65.6807 64C65.7447 63.9947 65.83 63.9893 65.9367 63.984C66.0487 63.9787 66.1793 63.976 66.3287 63.976C66.8513 63.976 67.2673 64.088 67.5767 64.312C67.886 64.536 68.0407 64.88 68.0407 65.344C68.0407 65.68 67.9527 65.9653 67.7767 66.2C67.606 66.4347 67.3847 66.6107 67.1127 66.728C66.846 66.8453 66.5713 66.904 66.2887 66.904C66.1393 66.904 66.0113 66.8907 65.9047 66.864C65.894 66.864 65.8887 66.8507 65.8887 66.824C65.8887 66.808 65.8913 66.792 65.8967 66.776C65.9073 66.76 65.918 66.7547 65.9287 66.76C66.0087 66.7813 66.102 66.792 66.2087 66.792C66.486 66.792 66.7207 66.6773 66.9127 66.448C67.1047 66.2187 67.2007 65.8907 67.2007 65.464C67.2007 65.0427 67.102 64.7173 66.9047 64.488C66.7127 64.2533 66.4407 64.136 66.0887 64.136C65.9607 64.136 65.862 64.1493 65.7927 64.176C65.7287 64.2027 65.6833 64.2533 65.6567 64.328C65.63 64.3973 65.6167 64.5093 65.6167 64.664V68.32ZM73.4633 63.952C73.4793 63.936 73.5166 63.928 73.5753 63.928C73.6659 63.928 73.7113 63.9467 73.7113 63.984V68.352C73.7113 68.512 73.7273 68.632 73.7593 68.712C73.7913 68.7867 73.8526 68.8373 73.9433 68.864C74.0339 68.8907 74.1753 68.904 74.3673 68.904C74.3833 68.904 74.3913 68.92 74.3913 68.952C74.3913 68.984 74.3833 69 74.3673 69C74.1859 69 74.0419 68.9973 73.9353 68.992L73.3353 68.984L72.6633 68.992C72.5673 68.9973 72.4393 69 72.2793 69C72.2633 69 72.2553 68.984 72.2553 68.952C72.2553 68.92 72.2633 68.904 72.2793 68.904C72.4819 68.904 72.6286 68.8907 72.7193 68.864C72.8099 68.8373 72.8713 68.7867 72.9033 68.712C72.9353 68.6373 72.9513 68.5173 72.9513 68.352V64.688L73.1833 64.656L69.6713 69.08C69.6553 69.1013 69.6179 69.112 69.5593 69.112C69.5219 69.112 69.4873 69.1067 69.4553 69.096C69.4286 69.0853 69.4153 69.072 69.4153 69.056V64.648C69.4153 64.488 69.3993 64.3707 69.3673 64.296C69.3353 64.2213 69.2739 64.1707 69.1833 64.144C69.0979 64.112 68.9593 64.096 68.7673 64.096C68.7513 64.096 68.7433 64.08 68.7433 64.048C68.7433 64.016 68.7513 64 68.7673 64L69.2073 64.008C69.4526 64.0187 69.6473 64.024 69.7913 64.024C69.9886 64.024 70.2153 64.0187 70.4713 64.008L70.8553 64C70.8713 64 70.8793 64.016 70.8793 64.048C70.8793 64.08 70.8713 64.096 70.8553 64.096C70.6526 64.096 70.5033 64.112 70.4073 64.144C70.3166 64.1707 70.2553 64.2213 70.2233 64.296C70.1913 64.3707 70.1753 64.488 70.1753 64.648V68.344L69.9513 68.384L73.4633 63.952ZM79.4283 68.904C79.4389 68.904 79.4443 68.92 79.4443 68.952C79.4443 68.984 79.4389 69 79.4283 69C79.2363 69 79.0896 68.9973 78.9883 68.992L78.3963 68.984L77.8123 68.992C77.7109 68.9973 77.5749 69 77.4043 69C77.3883 69 77.3803 68.984 77.3803 68.952C77.3803 68.92 77.3883 68.904 77.4043 68.904C77.5856 68.904 77.7163 68.8907 77.7963 68.864C77.8816 68.8373 77.9376 68.7867 77.9643 68.712C77.9963 68.6373 78.0123 68.5173 78.0123 68.352V66.368L78.2763 66.408C78.0683 66.408 77.8923 66.4373 77.7483 66.496C77.6096 66.5493 77.4629 66.664 77.3083 66.84C77.1589 67.016 76.9803 67.288 76.7723 67.656C76.5056 68.1147 76.3109 68.4373 76.1883 68.624C76.0709 68.8053 75.9883 68.9147 75.9403 68.952C75.8923 68.984 75.8283 69 75.7483 69H74.7803C74.7696 69 74.7643 68.984 74.7643 68.952C74.7643 68.92 74.7696 68.904 74.7803 68.904C74.9189 68.8987 75.0416 68.8613 75.1483 68.792C75.2549 68.7173 75.3536 68.6187 75.4443 68.496C75.5349 68.368 75.6629 68.168 75.8283 67.896C75.8603 67.8373 75.9403 67.704 76.0683 67.496C76.2389 67.2133 76.4043 66.9947 76.5643 66.84C76.7243 66.68 76.8923 66.568 77.0683 66.504C77.2443 66.4347 77.4549 66.3893 77.7003 66.368L77.7563 66.424C77.1429 66.4187 76.6736 66.3093 76.3483 66.096C76.0229 65.8773 75.8603 65.5813 75.8603 65.208C75.8603 64.968 75.9296 64.7547 76.0683 64.568C76.2069 64.3813 76.3989 64.2373 76.6443 64.136C76.8896 64.0293 77.1643 63.976 77.4683 63.976C77.5909 63.976 77.7323 63.984 77.8923 64C77.9563 64.0053 78.0309 64.0107 78.1163 64.016C78.2016 64.0213 78.2949 64.024 78.3963 64.024C78.5456 64.024 78.7429 64.0187 78.9883 64.008L79.4203 64C79.4309 64 79.4363 64.016 79.4363 64.048C79.4363 64.08 79.4309 64.096 79.4203 64.096C79.2229 64.096 79.0789 64.112 78.9883 64.144C78.8976 64.1707 78.8389 64.2213 78.8123 64.296C78.7856 64.3653 78.7723 64.4827 78.7723 64.648V68.352C78.7723 68.5173 78.7856 68.6373 78.8123 68.712C78.8443 68.7867 78.9029 68.8373 78.9883 68.864C79.0789 68.8907 79.2256 68.904 79.4283 68.904ZM76.6523 65.008C76.6523 65.392 76.7536 65.6987 76.9563 65.928C77.1589 66.1573 77.4523 66.272 77.8363 66.272C77.9109 66.272 77.9909 66.2667 78.0763 66.256C78.1669 66.2453 78.2389 66.232 78.2923 66.216L78.0123 66.304V64.664C78.0123 64.4507 77.9589 64.3013 77.8523 64.216C77.7509 64.1253 77.6203 64.08 77.4603 64.08C76.9216 64.08 76.6523 64.3893 76.6523 65.008ZM34.5788 79C34.5041 79 34.4375 78.9787 34.3788 78.936C34.3255 78.8933 34.2321 78.784 34.0988 78.608C33.9655 78.432 33.7388 78.1147 33.4188 77.656L33.2748 77.448C33.0615 77.144 32.9041 76.9333 32.8028 76.816C32.7068 76.6933 32.6055 76.608 32.4988 76.56C32.3921 76.5067 32.2508 76.48 32.0748 76.48C32.0108 76.48 31.9495 76.4827 31.8908 76.488C31.8375 76.4933 31.7895 76.4987 31.7468 76.504L31.7388 76.36C32.0908 76.344 32.3708 76.336 32.5788 76.336C32.8348 76.336 33.0348 76.3653 33.1788 76.424C33.3228 76.4773 33.4588 76.576 33.5868 76.72C33.7148 76.864 33.9148 77.1227 34.1868 77.496C34.4588 77.8747 34.6615 78.152 34.7948 78.328C34.9335 78.4987 35.0775 78.6373 35.2268 78.744C35.3815 78.8453 35.5495 78.8987 35.7308 78.904C35.7468 78.904 35.7548 78.92 35.7548 78.952C35.7548 78.984 35.7468 79 35.7308 79H34.5788ZM30.6268 79C30.6108 79 30.6028 78.984 30.6028 78.952C30.6028 78.92 30.6108 78.904 30.6268 78.904C30.8188 78.904 30.9575 78.8907 31.0428 78.864C31.1335 78.8373 31.1948 78.7867 31.2268 78.712C31.2588 78.632 31.2748 78.512 31.2748 78.352V74.648C31.2748 74.488 31.2588 74.3707 31.2268 74.296C31.1948 74.2213 31.1335 74.1707 31.0428 74.144C30.9575 74.112 30.8215 74.096 30.6348 74.096C30.6188 74.096 30.6108 74.08 30.6108 74.048C30.6108 74.016 30.6188 74 30.6348 74L31.0508 74.008C31.2855 74.0187 31.4748 74.024 31.6188 74.024C31.7895 74.024 32.0028 74.0187 32.2588 74.008L32.6828 74C32.6935 74 32.6988 74.016 32.6988 74.048C32.6988 74.08 32.6935 74.096 32.6828 74.096C32.4961 74.096 32.3575 74.112 32.2668 74.144C32.1761 74.176 32.1148 74.232 32.0828 74.312C32.0508 74.3867 32.0348 74.504 32.0348 74.664V78.352C32.0348 78.512 32.0508 78.632 32.0828 78.712C32.1148 78.7867 32.1735 78.8373 32.2588 78.864C32.3495 78.8907 32.4908 78.904 32.6828 78.904C32.6935 78.904 32.6988 78.92 32.6988 78.952C32.6988 78.984 32.6935 79 32.6828 79C32.5015 79 32.3575 78.9973 32.2508 78.992L31.6188 78.984L31.0428 78.992C30.9415 78.9973 30.8028 79 30.6268 79ZM32.5948 76.392L33.5148 75.112C33.7388 74.8027 33.8508 74.5573 33.8508 74.376C33.8508 74.2853 33.8188 74.216 33.7548 74.168C33.6961 74.12 33.6108 74.096 33.4988 74.096C33.4881 74.096 33.4828 74.08 33.4828 74.048C33.4828 74.016 33.4881 74 33.4988 74L33.8588 74.008C34.0828 74.0187 34.2855 74.024 34.4668 74.024C34.6641 74.024 34.8695 74.0187 35.0828 74.008L35.4028 74C35.4188 74 35.4268 74.016 35.4268 74.048C35.4268 74.08 35.4188 74.096 35.4028 74.096C35.1575 74.096 34.9015 74.176 34.6348 74.336C34.3681 74.496 34.1255 74.7147 33.9068 74.992L32.7388 76.464L32.5948 76.392ZM37.5393 78.32C37.5393 78.4907 37.558 78.616 37.5953 78.696C37.638 78.7707 37.7153 78.824 37.8273 78.856C37.9446 78.888 38.126 78.904 38.3713 78.904C38.3873 78.904 38.3953 78.92 38.3953 78.952C38.3953 78.984 38.3873 79 38.3713 79C38.1526 79 37.982 78.9973 37.8593 78.992L37.1633 78.984L36.5873 78.992C36.486 78.9973 36.3473 79 36.1713 79C36.1553 79 36.1473 78.984 36.1473 78.952C36.1473 78.92 36.1553 78.904 36.1713 78.904C36.3526 78.904 36.4833 78.8907 36.5633 78.864C36.6486 78.8373 36.7046 78.7867 36.7313 78.712C36.7633 78.632 36.7793 78.512 36.7793 78.352V74.648C36.7793 74.488 36.7633 74.3707 36.7313 74.296C36.7046 74.2213 36.6486 74.1707 36.5633 74.144C36.478 74.112 36.3473 74.096 36.1713 74.096C36.1553 74.096 36.1473 74.08 36.1473 74.048C36.1473 74.016 36.1553 74 36.1713 74L36.5873 74.008C36.822 74.0187 37.0113 74.024 37.1553 74.024C37.278 74.024 37.4273 74.016 37.6033 74C37.6673 73.9947 37.7526 73.9893 37.8593 73.984C37.9713 73.9787 38.102 73.976 38.2513 73.976C38.774 73.976 39.19 74.088 39.4993 74.312C39.8086 74.536 39.9633 74.88 39.9633 75.344C39.9633 75.68 39.8753 75.9653 39.6993 76.2C39.5286 76.4347 39.3073 76.6107 39.0353 76.728C38.7686 76.8453 38.494 76.904 38.2113 76.904C38.062 76.904 37.934 76.8907 37.8273 76.864C37.8166 76.864 37.8113 76.8507 37.8113 76.824C37.8113 76.808 37.814 76.792 37.8193 76.776C37.83 76.76 37.8406 76.7547 37.8513 76.76C37.9313 76.7813 38.0246 76.792 38.1313 76.792C38.4086 76.792 38.6433 76.6773 38.8353 76.448C39.0273 76.2187 39.1233 75.8907 39.1233 75.464C39.1233 75.0427 39.0246 74.7173 38.8273 74.488C38.6353 74.2533 38.3633 74.136 38.0113 74.136C37.8833 74.136 37.7846 74.1493 37.7153 74.176C37.6513 74.2027 37.606 74.2533 37.5793 74.328C37.5526 74.3973 37.5393 74.5093 37.5393 74.664V78.32ZM41.5323 76.84H43.7723L43.8283 77.04H41.4283L41.5323 76.84ZM45.6843 78.904C45.7056 78.904 45.7163 78.92 45.7163 78.952C45.7163 78.984 45.7056 79 45.6843 79C45.5829 79 45.4203 78.9947 45.1963 78.984C44.9723 78.9733 44.8096 78.968 44.7083 78.968C44.5749 78.968 44.4176 78.9733 44.2363 78.984C44.0549 78.9947 43.9136 79 43.8123 79C43.7909 79 43.7803 78.984 43.7803 78.952C43.7803 78.92 43.7909 78.904 43.8123 78.904C43.9723 78.904 44.0869 78.888 44.1563 78.856C44.2256 78.8187 44.2603 78.76 44.2603 78.68C44.2603 78.6 44.2149 78.464 44.1243 78.272L42.4523 74.872L42.7803 74.336L41.1963 77.904C41.1269 78.064 41.0923 78.208 41.0923 78.336C41.0923 78.5227 41.1589 78.664 41.2923 78.76C41.4256 78.856 41.6123 78.904 41.8523 78.904C41.8789 78.904 41.8923 78.92 41.8923 78.952C41.8923 78.984 41.8789 79 41.8523 79C41.7563 79 41.6176 78.9947 41.4363 78.984C41.2336 78.9733 41.0576 78.968 40.9083 78.968C40.7643 78.968 40.5963 78.9733 40.4043 78.984C40.2336 78.9947 40.0923 79 39.9803 79C39.9536 79 39.9403 78.984 39.9403 78.952C39.9403 78.92 39.9536 78.904 39.9803 78.904C40.1296 78.904 40.2549 78.8747 40.3563 78.816C40.4576 78.7573 40.5563 78.6533 40.6523 78.504C40.7483 78.3493 40.8629 78.1227 40.9963 77.824L42.7163 73.952C42.7269 73.936 42.7509 73.928 42.7883 73.928C42.8256 73.928 42.8469 73.936 42.8523 73.952L44.8123 77.904C44.9936 78.288 45.1456 78.552 45.2683 78.696C45.3963 78.8347 45.5349 78.904 45.6843 78.904ZM49.102 73.912C49.342 73.912 49.59 73.9333 49.846 73.976C50.1073 74.0187 50.3127 74.0773 50.462 74.152C50.51 74.1733 50.5393 74.1947 50.55 74.216C50.566 74.2373 50.5767 74.2773 50.582 74.336L50.678 75.376C50.678 75.392 50.6647 75.4027 50.638 75.408C50.6113 75.408 50.5953 75.4 50.59 75.384C50.4353 74.968 50.2007 74.6507 49.886 74.432C49.5767 74.2133 49.2113 74.104 48.79 74.104C48.23 74.104 47.7927 74.2987 47.478 74.688C47.1633 75.0773 47.006 75.6 47.006 76.256C47.006 76.7467 47.094 77.1973 47.27 77.608C47.446 78.0187 47.686 78.344 47.99 78.584C48.2993 78.824 48.6433 78.944 49.022 78.944C49.742 78.944 50.2887 78.496 50.662 77.6C50.6727 77.584 50.686 77.576 50.702 77.576C50.7127 77.576 50.7233 77.5813 50.734 77.592C50.75 77.5973 50.758 77.6027 50.758 77.608L50.638 78.632C50.6273 78.696 50.614 78.7387 50.598 78.76C50.5873 78.776 50.558 78.7947 50.51 78.816C50.046 79.0027 49.5527 79.096 49.03 79.096C48.3793 79.096 47.838 78.968 47.406 78.712C46.974 78.4507 46.654 78.12 46.446 77.72C46.2433 77.32 46.142 76.904 46.142 76.472C46.142 75.9707 46.278 75.5253 46.55 75.136C46.8273 74.7467 47.1927 74.4453 47.646 74.232C48.0993 74.0187 48.5847 73.912 49.102 73.912ZM54.1896 79.096C53.6936 79.096 53.2509 78.9813 52.8616 78.752C52.4776 78.5173 52.1789 78.2027 51.9656 77.808C51.7576 77.408 51.6536 76.9733 51.6536 76.504C51.6536 75.9547 51.7922 75.4853 52.0696 75.096C52.3469 74.7013 52.7016 74.4053 53.1336 74.208C53.5709 74.0107 54.0162 73.912 54.4696 73.912C54.9762 73.912 55.4216 74.032 55.8056 74.272C56.1896 74.5067 56.4829 74.8187 56.6856 75.208C56.8936 75.5973 56.9976 76.0107 56.9976 76.448C56.9976 76.9333 56.8696 77.3787 56.6136 77.784C56.3576 78.1893 56.0136 78.5093 55.5816 78.744C55.1549 78.9787 54.6909 79.096 54.1896 79.096ZM54.4616 78.904C54.7816 78.904 55.0669 78.8187 55.3176 78.648C55.5736 78.472 55.7736 78.216 55.9176 77.88C56.0669 77.544 56.1416 77.144 56.1416 76.68C56.1416 76.184 56.0589 75.744 55.8936 75.36C55.7336 74.9707 55.5016 74.6667 55.1976 74.448C54.8989 74.2293 54.5469 74.12 54.1416 74.12C53.6189 74.12 53.2162 74.3067 52.9336 74.68C52.6509 75.048 52.5096 75.56 52.5096 76.216C52.5096 76.728 52.5922 77.1893 52.7576 77.6C52.9229 78.0053 53.1549 78.3253 53.4536 78.56C53.7522 78.7893 54.0882 78.904 54.4616 78.904ZM59.0156 74.168C58.6903 74.168 58.4236 74.2693 58.2156 74.472C58.0076 74.6693 57.8476 74.968 57.7356 75.368C57.7356 75.384 57.7196 75.392 57.6876 75.392C57.661 75.3867 57.6476 75.3787 57.6476 75.368C57.669 75.16 57.693 74.8933 57.7196 74.568C57.7463 74.2373 57.7596 73.9893 57.7596 73.824C57.7596 73.7973 57.773 73.784 57.7996 73.784C57.8316 73.784 57.8476 73.7973 57.8476 73.824C57.8476 73.9413 57.997 74 58.2956 74C58.7543 74.016 59.2903 74.024 59.9036 74.024C60.2183 74.024 60.5516 74.0187 60.9036 74.008L61.4476 74C61.6503 74 61.797 73.9867 61.8876 73.96C61.9836 73.9333 62.045 73.88 62.0716 73.8C62.077 73.7787 62.093 73.768 62.1196 73.768C62.1463 73.768 62.1596 73.7787 62.1596 73.8C62.1436 73.9653 62.1276 74.216 62.1116 74.552C62.0956 74.888 62.0876 75.16 62.0876 75.368C62.0876 75.3787 62.0716 75.384 62.0396 75.384C62.013 75.384 61.997 75.3787 61.9916 75.368C61.9383 74.9573 61.813 74.656 61.6156 74.464C61.4183 74.2667 61.1516 74.168 60.8156 74.168C60.6663 74.168 60.5543 74.1813 60.4796 74.208C60.4103 74.2347 60.3623 74.2827 60.3356 74.352C60.309 74.416 60.2956 74.52 60.2956 74.664V78.352C60.2956 78.512 60.3116 78.632 60.3436 78.712C60.381 78.7867 60.4476 78.8373 60.5436 78.864C60.6396 78.8907 60.7916 78.904 60.9996 78.904C61.0156 78.904 61.0236 78.92 61.0236 78.952C61.0236 78.984 61.0156 79 60.9996 79C60.813 79 60.6663 78.9973 60.5596 78.992L59.9036 78.984L59.2796 78.992C59.1676 78.9973 59.013 79 58.8156 79C58.805 79 58.7996 78.984 58.7996 78.952C58.7996 78.92 58.805 78.904 58.8156 78.904C59.0236 78.904 59.1756 78.8907 59.2716 78.864C59.373 78.8373 59.4396 78.7867 59.4716 78.712C59.509 78.632 59.5276 78.512 59.5276 78.352V74.648C59.5276 74.5093 59.5143 74.408 59.4876 74.344C59.461 74.2747 59.413 74.2293 59.3436 74.208C59.2743 74.1813 59.165 74.168 59.0156 74.168ZM65.1168 79.032C64.9835 79.032 64.8208 79.024 64.6288 79.008C64.1808 78.992 63.9408 78.984 63.9088 78.984L63.3968 78.992C63.2901 78.9973 63.1408 79 62.9488 79C62.9328 79 62.9248 78.984 62.9248 78.952C62.9248 78.92 62.9328 78.904 62.9488 78.904C63.1355 78.8987 63.2688 78.8853 63.3488 78.864C63.4288 78.8373 63.4848 78.7893 63.5168 78.72C63.5488 78.6453 63.5648 78.5227 63.5648 78.352V74.648C63.5648 74.4773 63.5488 74.3573 63.5168 74.288C63.4901 74.2133 63.4368 74.1653 63.3568 74.144C63.2821 74.1227 63.1488 74.1067 62.9568 74.096C62.9461 74.096 62.9408 74.08 62.9408 74.048C62.9408 74.016 62.9461 74 62.9568 74L63.3488 74.008C63.5835 74.0187 63.7808 74.024 63.9408 74.024C64.1061 74.024 64.3168 74.0187 64.5728 74.008L65.0048 74C65.0155 74 65.0208 74.016 65.0208 74.048C65.0208 74.08 65.0155 74.096 65.0048 74.096C64.8021 74.1067 64.6555 74.1253 64.5648 74.152C64.4795 74.1733 64.4181 74.2213 64.3808 74.296C64.3488 74.3707 64.3328 74.4933 64.3328 74.664V78.352C64.3328 78.5227 64.3728 78.648 64.4528 78.728C64.5381 78.808 64.7115 78.848 64.9728 78.848C65.3621 78.848 65.6395 78.752 65.8048 78.56C65.9701 78.3627 66.0528 78.056 66.0528 77.64C66.0528 77.1973 65.9621 76.8773 65.7808 76.68C65.5995 76.4773 65.3115 76.376 64.9168 76.376C64.6661 76.376 64.3621 76.416 64.0048 76.496L63.9728 76.32C64.3568 76.224 64.7541 76.176 65.1648 76.176C65.7088 76.176 66.1275 76.2853 66.4208 76.504C66.7141 76.7173 66.8608 77.0453 66.8608 77.488C66.8608 77.7973 66.7861 78.0693 66.6368 78.304C66.4875 78.5333 66.2795 78.712 66.0128 78.84C65.7515 78.968 65.4528 79.032 65.1168 79.032ZM68.6368 78.352C68.6368 78.5173 68.6501 78.6373 68.6768 78.712C68.7035 78.7867 68.7568 78.8373 68.8368 78.864C68.9221 78.8907 69.0581 78.904 69.2448 78.904C69.2555 78.904 69.2608 78.92 69.2608 78.952C69.2608 78.984 69.2555 79 69.2448 79C69.0688 79 68.9301 78.9973 68.8288 78.992L68.2448 78.984L67.6688 78.992C67.5621 78.9973 67.4208 79 67.2448 79C67.2341 79 67.2288 78.984 67.2288 78.952C67.2288 78.92 67.2341 78.904 67.2448 78.904C67.4261 78.904 67.5595 78.8907 67.6448 78.864C67.7301 78.8373 67.7888 78.7867 67.8208 78.712C67.8528 78.632 67.8688 78.512 67.8688 78.352V74.648C67.8688 74.488 67.8528 74.3707 67.8208 74.296C67.7888 74.2213 67.7301 74.1707 67.6448 74.144C67.5595 74.112 67.4261 74.096 67.2448 74.096C67.2341 74.096 67.2288 74.08 67.2288 74.048C67.2288 74.016 67.2341 74 67.2448 74L67.6688 74.008C67.9035 74.0187 68.0955 74.024 68.2448 74.024C68.3941 74.024 68.5915 74.0187 68.8368 74.008L69.2448 74C69.2555 74 69.2608 74.016 69.2608 74.048C69.2608 74.08 69.2555 74.096 69.2448 74.096C69.0635 74.096 68.9301 74.112 68.8448 74.144C68.7648 74.176 68.7088 74.232 68.6768 74.312C68.6501 74.3867 68.6368 74.504 68.6368 74.664V78.352Z" fill="#DDB565"></path>
<path d="M33.2689 36.44C32.6022 37.9867 31.7622 39.5733 30.7489 41.2C29.6022 44.9067 29.2422 47.1333 29.6689 47.88C29.9622 48.3867 30.7822 48.1667 32.1289 47.22C32.6089 46.8867 33.1289 46.48 33.6889 46C34.1289 45.6133 34.5089 45.26 34.8289 44.94C34.9756 44.8067 35.1222 44.8067 35.2689 44.94C35.4156 45.0733 35.4156 45.2133 35.2689 45.36C34.6556 45.96 34.0489 46.5067 33.4489 47C32.7022 47.5867 32.0356 48.0333 31.4489 48.34C29.9422 49.1 29.0889 48.8267 28.8889 47.52C28.7556 46.64 28.9222 45.2333 29.3889 43.3C28.3089 44.8733 27.2622 46.14 26.2489 47.1C25.4089 47.9 24.5089 48.5333 23.5489 49C22.4156 49.5733 21.4222 49.7933 20.5689 49.66C19.1822 49.46 18.3889 48.56 18.1889 46.96C18.0422 45.7067 18.2422 44.1733 18.7889 42.36C20.2689 37.5867 22.8956 33.8467 26.6689 31.14C28.2156 30.0333 29.7622 29.2667 31.3089 28.84C32.7889 28.4267 34.0289 28.3933 35.0289 28.74C35.9089 29.0467 36.4556 29.5867 36.6689 30.36C36.8556 31.0667 36.7356 31.8733 36.3089 32.78C35.7622 33.9267 34.7489 35.1467 33.2689 36.44ZM25.8289 46.64C27.1622 45.3867 28.5422 43.5733 29.9689 41.2C30.2622 40.2 30.5956 39.1933 30.9689 38.18C30.7289 38.3533 30.4556 38.54 30.1489 38.74L29.7489 39L29.3689 39.24C29.2089 39.3467 29.0756 39.3133 28.9689 39.14C28.8622 38.9667 28.8889 38.8267 29.0489 38.72C29.8489 38.2267 30.6222 37.6933 31.3689 37.12C32.3556 34.6533 33.0956 33.36 33.5889 33.24C33.7622 33.2 33.9089 33.26 34.0289 33.42C34.1622 33.6467 34.0889 34.1867 33.8089 35.04C34.7022 34.1333 35.3289 33.2867 35.6889 32.5C36.0222 31.7667 36.1289 31.14 36.0089 30.62C35.8622 30.0467 35.4556 29.6467 34.7889 29.42C33.9356 29.14 32.8422 29.1933 31.5089 29.58C30.0822 30.0067 28.6556 30.7333 27.2289 31.76C23.6689 34.32 21.1622 37.8467 19.7089 42.34C19.4822 43.0467 19.3022 43.72 19.1689 44.36C19.0089 45.1467 18.9356 45.84 18.9489 46.44C18.9756 47.9867 19.5422 48.8533 20.6489 49.04C21.4356 49.1733 22.3556 48.96 23.4089 48.4C24.2622 47.9467 25.0689 47.36 25.8289 46.64ZM35.8636 44.12C36.1836 43.5067 36.4103 43.1267 36.5436 42.98L36.7236 42.82L36.8636 42.66C37.0103 42.5133 37.1503 42.5133 37.2836 42.66C37.4303 42.7933 37.4369 42.9333 37.3036 43.08L37.2636 43.12L37.2036 43.18C37.0436 43.3667 36.8836 43.5667 36.7236 43.78C36.3769 44.34 36.2369 44.84 36.3036 45.28C36.3436 45.3733 36.4969 45.3933 36.7636 45.34C37.0569 45.26 37.4103 45.1 37.8236 44.86C38.9169 44.1933 40.0969 43.1133 41.3636 41.62C41.5103 41.4333 41.6836 41.4133 41.8836 41.56C42.0836 41.7067 42.1036 41.8867 41.9436 42.1C40.4769 44.0867 39.8503 45.2133 40.0636 45.48C40.1303 45.5733 40.4436 45.48 41.0036 45.2C41.2169 45.0933 41.4369 44.9733 41.6636 44.84C41.8636 44.7333 42.0169 44.64 42.1236 44.56C42.4169 44.3867 42.8303 44.0933 43.3636 43.68C43.4436 43.6133 43.5303 43.5867 43.6236 43.6C43.7169 43.6 43.7836 43.6333 43.8236 43.7C43.9169 43.8333 43.8836 43.98 43.7236 44.14C43.5103 44.3267 43.2969 44.4933 43.0836 44.64C41.7103 45.6533 40.6569 46.16 39.9236 46.16C39.1503 46.1467 39.0436 45.54 39.6036 44.34L39.3636 44.52C37.8169 45.6933 36.6903 46.1933 35.9836 46.02C35.5836 45.3667 35.5436 44.7333 35.8636 44.12ZM48.7673 45.6C48.8073 45.6267 48.8207 45.6333 48.8073 45.62C48.794 45.62 48.7807 45.6133 48.7673 45.6ZM49.3473 41.6C49.6807 41.5067 49.9073 41.5467 50.0273 41.72C50.1473 41.8933 50.1207 42.0933 49.9473 42.32C49.8273 42.48 49.7207 42.5867 49.6273 42.64C49.4807 42.7333 49.3673 42.7267 49.2873 42.62C49.234 42.5667 49.2407 42.4667 49.3073 42.32C48.6673 42.5733 47.874 43.1 46.9273 43.9C47.234 44.3267 47.6207 44.7333 48.0873 45.12C48.2473 45.24 48.4073 45.3533 48.5673 45.46C48.6207 45.5 48.6673 45.5333 48.7073 45.56L48.7673 45.6L48.8073 45.62C48.954 45.7267 48.974 45.86 48.8673 46.02C48.7607 46.18 48.6273 46.2133 48.4673 46.12C47.6673 45.64 46.994 45.0467 46.4473 44.34C46.314 44.46 46.1073 44.64 45.8273 44.88L45.4873 45.18L45.1273 45.5C44.5007 46.0467 43.9073 46.5533 43.3473 47.02C43.2807 47.0733 43.2273 47.12 43.1873 47.16L42.9873 47.32C42.8407 47.44 42.7273 47.5467 42.6473 47.64C42.5673 47.72 42.4807 47.7533 42.3873 47.74C42.3073 47.7267 42.2407 47.6867 42.1873 47.62C42.134 47.54 42.1073 47.46 42.1073 47.38C42.1207 47.2867 42.174 47.2133 42.2673 47.16C42.7473 46.88 43.3607 46.3933 44.1073 45.7C44.334 45.4867 44.6607 45.1733 45.0873 44.76L46.0673 43.82C45.8007 43.3533 45.614 42.9533 45.5073 42.62C45.454 42.6733 45.234 42.8733 44.8473 43.22C44.4607 43.5667 44.234 43.7667 44.1673 43.82C43.874 44.0867 43.614 44.2933 43.3873 44.44C43.3473 44.4667 43.2873 44.48 43.2073 44.48C43.1407 44.4667 43.0807 44.4333 43.0273 44.38C42.9873 44.3267 42.974 44.26 42.9873 44.18C43.0007 44.1 43.0273 44.04 43.0673 44C43.1073 43.96 43.234 43.8467 43.4473 43.66C43.5673 43.5667 43.674 43.4733 43.7673 43.38C43.9007 43.26 44.034 43.14 44.1673 43.02C44.474 42.7133 44.954 42.1733 45.6073 41.4C45.754 41.24 45.9073 41.2333 46.0673 41.38C46.2273 41.5133 46.2407 41.6667 46.1073 41.84C46.1473 42.36 46.3073 42.8667 46.5873 43.36C47.6407 42.4 48.5607 41.8133 49.3473 41.6ZM57.6877 43.7C57.781 43.8333 57.7477 43.98 57.5877 44.14C57.3743 44.3267 57.161 44.4933 56.9477 44.64C55.5743 45.6533 54.521 46.16 53.7877 46.16C53.0143 46.1467 52.9077 45.54 53.4677 44.34L53.2277 44.52C51.681 45.6933 50.601 46.1533 49.9877 45.9C49.441 45.6867 49.3743 45.0533 49.7877 44C49.681 44.0933 49.5743 44.18 49.4677 44.26L49.3477 44.36L49.2277 44.44C49.1743 44.4667 49.1143 44.48 49.0477 44.48C48.9677 44.4667 48.901 44.4333 48.8477 44.38C48.8077 44.3267 48.7943 44.26 48.8077 44.18C48.821 44.1133 48.8477 44.0533 48.8877 44C48.9277 43.96 49.0477 43.8533 49.2477 43.68C49.341 43.6 49.4343 43.5267 49.5277 43.46C49.6343 43.3533 49.7477 43.2467 49.8677 43.14C50.0943 42.9267 50.361 42.6667 50.6677 42.36C50.761 42.2533 50.8743 42.1267 51.0077 41.98L51.1877 41.82L51.3277 41.66C51.4743 41.5133 51.6143 41.5133 51.7477 41.66C51.8943 41.7933 51.901 41.9333 51.7677 42.08L51.7277 42.12L51.6677 42.18C51.5077 42.3667 51.3477 42.5667 51.1877 42.78C50.9877 43.0467 50.8143 43.3133 50.6677 43.58C50.2677 44.2733 50.101 44.84 50.1677 45.28C50.2077 45.3733 50.361 45.3933 50.6277 45.34C50.921 45.26 51.2743 45.1 51.6877 44.86C52.781 44.1933 53.961 43.1133 55.2277 41.62C55.3743 41.4333 55.5477 41.4133 55.7477 41.56C55.9477 41.7067 55.9677 41.8867 55.8077 42.1C54.341 44.0867 53.7143 45.2133 53.9277 45.48C53.9943 45.5733 54.3077 45.48 54.8677 45.2C55.081 45.0933 55.301 44.9733 55.5277 44.84C55.7277 44.7333 55.881 44.64 55.9877 44.56C56.281 44.3867 56.6943 44.0933 57.2277 43.68C57.3077 43.6133 57.3943 43.5867 57.4877 43.6C57.581 43.6 57.6477 43.6333 57.6877 43.7ZM63.9159 44.86C62.7026 45.7267 61.7559 46.16 61.0759 46.16C60.3026 46.1467 60.1959 45.54 60.7559 44.34L60.5159 44.52C58.9693 45.6933 57.8426 46.1933 57.1359 46.02C56.7359 45.3667 56.6959 44.7333 57.0159 44.12C57.3359 43.5067 57.5626 43.1267 57.6959 42.98L57.8759 42.82L58.0159 42.66C58.1626 42.5133 58.3026 42.5133 58.4359 42.66C58.5826 42.7933 58.5893 42.9333 58.4559 43.08L58.4159 43.12L58.3559 43.18C58.1959 43.3667 58.0359 43.5667 57.8759 43.78C57.5293 44.34 57.3893 44.84 57.4559 45.28C57.4959 45.3733 57.6493 45.3933 57.9159 45.34C58.2093 45.26 58.5626 45.1 58.9759 44.86C60.0693 44.1933 61.2493 43.1133 62.5159 41.62C62.6626 41.4333 62.8359 41.4133 63.0359 41.56C63.2359 41.7067 63.2559 41.8867 63.0959 42.1C61.6293 44.0867 61.0026 45.2133 61.2159 45.48C61.2826 45.5733 61.5959 45.48 62.1559 45.2C62.3693 45.0933 62.5893 44.9733 62.8159 44.84C63.0159 44.7333 63.1693 44.64 63.2759 44.56C63.5693 44.3867 63.9826 44.0933 64.5159 43.68C64.5426 43.6533 64.5693 43.6333 64.5959 43.62L65.8959 41.62C66.0426 41.4333 66.2159 41.4133 66.4159 41.56C66.6159 41.7067 66.6359 41.8867 66.4759 42.1C65.0093 44.0867 64.3826 45.2133 64.5959 45.48C64.6626 45.5733 64.9759 45.48 65.5359 45.2C65.7493 45.0933 65.9693 44.9733 66.1959 44.84C66.3959 44.7333 66.5493 44.64 66.6559 44.56C66.9493 44.3867 67.3626 44.0933 67.8959 43.68C67.9759 43.6133 68.0626 43.5867 68.1559 43.6C68.2493 43.6 68.3159 43.6333 68.3559 43.7C68.4493 43.8333 68.4159 43.98 68.2559 44.14C68.0426 44.3267 67.8293 44.4933 67.6159 44.64C66.2426 45.6533 65.1893 46.16 64.4559 46.16C63.8026 46.1467 63.6226 45.7133 63.9159 44.86ZM76.3791 43.7C76.4724 43.8333 76.4391 43.98 76.2791 44.14C76.0657 44.3267 75.8524 44.4933 75.6391 44.64C74.2657 45.6533 73.2124 46.16 72.4791 46.16C71.7057 46.1467 71.5991 45.54 72.1591 44.34L71.9191 44.52C70.3724 45.6933 69.2924 46.1533 68.6791 45.9C68.1324 45.6867 68.0657 45.0533 68.4791 44C68.3724 44.0933 68.2657 44.18 68.1591 44.26L68.0391 44.36L67.9191 44.44C67.8657 44.4667 67.8057 44.48 67.7391 44.48C67.6591 44.4667 67.5924 44.4333 67.5391 44.38C67.4991 44.3267 67.4857 44.26 67.4991 44.18C67.5124 44.1133 67.5391 44.0533 67.5791 44C67.6191 43.96 67.7391 43.8533 67.9391 43.68C68.0324 43.6 68.1257 43.5267 68.2191 43.46C68.3257 43.3533 68.4391 43.2467 68.5591 43.14C68.7857 42.9267 69.0524 42.6667 69.3591 42.36C69.4524 42.2533 69.5657 42.1267 69.6991 41.98L69.8791 41.82L70.0191 41.66C70.1657 41.5133 70.3057 41.5133 70.4391 41.66C70.5857 41.7933 70.5924 41.9333 70.4591 42.08L70.4191 42.12L70.3591 42.18C70.1991 42.3667 70.0391 42.5667 69.8791 42.78C69.6791 43.0467 69.5057 43.3133 69.3591 43.58C68.9591 44.2733 68.7924 44.84 68.8591 45.28C68.8991 45.3733 69.0524 45.3933 69.3191 45.34C69.6124 45.26 69.9657 45.1 70.3791 44.86C71.4724 44.1933 72.6524 43.1133 73.9191 41.62C74.0657 41.4333 74.2391 41.4133 74.4391 41.56C74.6391 41.7067 74.6591 41.8867 74.4991 42.1C73.0324 44.0867 72.4057 45.2133 72.6191 45.48C72.6857 45.5733 72.9991 45.48 73.5591 45.2C73.7724 45.0933 73.9924 44.9733 74.2191 44.84C74.4191 44.7333 74.5724 44.64 74.6791 44.56C74.9724 44.3867 75.3857 44.0933 75.9191 43.68C75.9991 43.6133 76.0857 43.5867 76.1791 43.6C76.2724 43.6 76.3391 43.6333 76.3791 43.7ZM81.0073 41.86C81.074 41.78 81.1407 41.7 81.2073 41.62C81.354 41.4333 81.5273 41.4133 81.7273 41.56C81.9273 41.7067 81.9473 41.8867 81.7873 42.1C80.3207 44.0867 79.694 45.2133 79.9073 45.48C79.974 45.5733 80.2873 45.48 80.8473 45.2C81.0607 45.0933 81.2807 44.9733 81.5073 44.84C81.7073 44.7333 81.8607 44.64 81.9673 44.56C82.2607 44.3867 82.674 44.0933 83.2073 43.68C83.2873 43.6133 83.374 43.5867 83.4673 43.6C83.5607 43.6 83.6273 43.6333 83.6673 43.7C83.7607 43.8333 83.7273 43.98 83.5673 44.14C83.354 44.3267 83.1407 44.4933 82.9273 44.64C81.554 45.6533 80.5007 46.16 79.7673 46.16C78.994 46.1467 78.8873 45.54 79.4473 44.34L79.2073 44.52C77.6607 45.6933 76.534 46.1933 75.8273 46.02C75.4273 45.3667 75.3607 44.78 75.6273 44.26C75.894 43.7267 76.094 43.3867 76.2273 43.24L76.4073 43.08L76.5473 42.92C76.694 42.7733 76.834 42.7733 76.9673 42.92C77.114 43.04 77.1207 43.18 76.9873 43.34L76.9473 43.38L76.8873 43.44C76.7273 43.6267 76.5673 43.8267 76.4073 44.04C76.1673 44.4267 76.0807 44.84 76.1473 45.28C76.1873 45.3733 76.3407 45.3933 76.6073 45.34C76.9007 45.26 77.254 45.1 77.6673 44.86C77.9873 44.6733 78.3073 44.4467 78.6273 44.18C78.414 44.18 78.234 44.16 78.0873 44.12C77.6073 44.0133 77.394 43.7667 77.4473 43.38C77.5673 42.9133 77.8873 42.48 78.4073 42.08C78.8607 41.72 79.3473 41.48 79.8673 41.36C80.3873 41.2267 80.734 41.26 80.9073 41.46C81.0007 41.5667 81.034 41.7 81.0073 41.86ZM79.4473 43.48C79.7007 43.24 79.9673 42.98 80.2473 42.7C80.194 42.6467 80.1607 42.5867 80.1473 42.52C80.134 42.4533 80.154 42.3867 80.2073 42.32C80.2607 42.2667 80.314 42.18 80.3673 42.06L80.4673 41.82C80.1207 41.7933 79.6473 41.9867 79.0473 42.4C78.4607 42.8133 78.134 43.1733 78.0673 43.48C78.1873 43.52 78.3407 43.54 78.5273 43.54L78.7873 43.52L79.0473 43.5C79.194 43.4867 79.3273 43.48 79.4473 43.48Z" fill="#DDB565"></path>
<path d="M71.25 33C71.325 33.375 71.425 34.075 72.5 34.25C71.425 34.425 71.325 35.125 71.25 35.5C71.175 35.125 71.075 34.425 70 34.25C71.075 34.075 71.175 33.375 71.25 33Z" fill="#DDB565"></path>
<path d="M60.6667 33C60.7067 33.2 60.76 33.5733 61.3333 33.6667C60.76 33.76 60.7067 34.1333 60.6667 34.3333C60.6267 34.1333 60.5733 33.76 60 33.6667C60.5733 33.5733 60.6267 33.2 60.6667 33Z" fill="#DDB565"></path>
<path d="M74 18C74.06 18.3 74.14 18.86 75 19C74.14 19.14 74.06 19.7 74 20C73.94 19.7 73.86 19.14 73 19C73.86 18.86 73.94 18.3 74 18Z" fill="#DDB565"></path>
<path d="M55.25 9C55.325 9.375 55.425 10.075 56.5 10.25C55.425 10.425 55.325 11.125 55.25 11.5C55.175 11.125 55.075 10.425 54 10.25C55.075 10.075 55.175 9.375 55.25 9Z" fill="#DDB565"></path>
<path d="M80.25 31C80.325 31.375 80.425 32.075 81.5 32.25C80.425 32.425 80.325 33.125 80.25 33.5C80.175 33.125 80.075 32.425 79 32.25C80.075 32.075 80.175 31.375 80.25 31Z" fill="#DDB565"></path>
<path d="M69.5 13C69.53 13.15 69.57 13.43 70 13.5C69.57 13.57 69.53 13.85 69.5 14C69.47 13.85 69.43 13.57 69 13.5C69.43 13.43 69.47 13.15 69.5 13Z" fill="#DDB565"></path>
<path d="M66.25 29C66.325 29.375 66.425 30.075 67.5 30.25C66.425 30.425 66.325 31.125 66.25 31.5C66.175 31.125 66.075 30.425 65 30.25C66.075 30.075 66.175 29.375 66.25 29Z" fill="#DDB565"></path>
<path d="M62 24C62.06 24.3 62.14 24.86 63 25C62.14 25.14 62.06 25.7 62 26C61.94 25.7 61.86 25.14 61 25C61.86 24.86 61.94 24.3 62 24Z" fill="#DDB565"></path>
<path d="M49.6667 23C49.7067 23.2 49.76 23.5733 50.3333 23.6667C49.76 23.76 49.7067 24.1333 49.6667 24.3333C49.6267 24.1333 49.5733 23.76 49 23.6667C49.5733 23.5733 49.6267 23.2 49.6667 23Z" fill="#DDB565"></path>
<path d="M78 24C78.06 24.3 78.14 24.86 79 25C78.14 25.14 78.06 25.7 78 26C77.94 25.7 77.86 25.14 77 25C77.86 24.86 77.94 24.3 78 24Z" fill="#DDB565"></path>
<path d="M73.6667 29C73.7067 29.2 73.76 29.5733 74.3333 29.6667C73.76 29.76 73.7067 30.1333 73.6667 30.3333C73.6267 30.1333 73.5733 29.76 73 29.6667C73.5733 29.5733 73.6267 29.2 73.6667 29Z" fill="#DDB565"></path>
<path d="M41.6667 21C41.7667 21.5 41.9 22.4333 43.3333 22.6667C41.9 22.9 41.7667 23.8333 41.6667 24.3333C41.5667 23.8333 41.4333 22.9 40 22.6667C41.4333 22.4333 41.5667 21.5 41.6667 21Z" fill="#DDB565"></path>
<path d="M52.6667 29C52.7667 29.5 52.9 30.4333 54.3333 30.6667C52.9 30.9 52.7667 31.8333 52.6667 32.3333C52.5667 31.8333 52.4333 30.9 51 30.6667C52.4333 30.4333 52.5667 29.5 52.6667 29Z" fill="#DDB565"></path>
<path d="M57 19C57.06 19.3 57.14 19.86 58 20C57.14 20.14 57.06 20.7 57 21C56.94 20.7 56.86 20.14 56 20C56.86 19.86 56.94 19.3 57 19Z" fill="#DDB565"></path>
<path d="M44 30C44.06 30.3 44.14 30.86 45 31C44.14 31.14 44.06 31.7 44 32C43.94 31.7 43.86 31.14 43 31C43.86 30.86 43.94 30.3 44 30Z" fill="#DDB565"></path>
<path d="M62.25 12C62.325 12.375 62.425 13.075 63.5 13.25C62.425 13.425 62.325 14.125 62.25 14.5C62.175 14.125 62.075 13.425 61 13.25C62.075 13.075 62.175 12.375 62.25 12Z" fill="#DDB565"></path>
<path d="M49.6667 13C49.7667 13.5 49.9 14.4333 51.3333 14.6667C49.9 14.9 49.7667 15.8333 49.6667 16.3333C49.5667 15.8333 49.4333 14.9 48 14.6667C49.4333 14.4333 49.5667 13.5 49.6667 13Z" fill="#DDB565"></path>
<path d="M67.6667 20C67.7667 20.5 67.9 21.4333 69.3333 21.6667C67.9 21.9 67.7667 22.8333 67.6667 23.3333C67.5667 22.8333 67.4333 21.9 66 21.6667C67.4333 21.4333 67.5667 20.5 67.6667 20Z" fill="#DDB565"></path>
</svg><style>@media (prefers-color-scheme: light) { :root { filter: none; } }
@media (prefers-color-scheme: dark) { :root { filter: none; } }
</style></svg>