<svg width="100" height="100" viewBox="0 0 100 100" fill="none" xmlns="http://www.w3.org/2000/svg">
<g clip-path="url(#clip0_207_247)">
<path d="M15.3551 0.618912C14.359 1.49782 11.7222 5.52126 10.3355 8.29469C3.46053 22.0056 3.22615 37.3377 9.65194 52.4549C10.1597 53.6267 11.4097 56.1853 12.4254 58.1189C19.8668 72.1814 22.816 79.9549 23.4605 87.3181C23.6363 89.4861 23.4801 92.0056 23.0699 93.5877C22.7574 94.7791 21.7222 96.6736 21.1949 97.0252C20.5113 97.4549 20.2379 98.3338 20.5308 99.0369C21.0582 100.306 22.1519 100.345 23.441 99.1345C25.316 97.3767 26.3512 94.6033 26.5465 90.8533L26.6832 88.4119L27.6207 90.0135C29.4566 93.1189 33.6168 98.7439 34.7301 99.6228C35.3941 100.15 36.0777 100.111 36.6441 99.5252C37.5035 98.6853 37.3277 98.1775 35.1793 95.4041C28.4019 86.6931 24.691 78.5486 23.3433 69.447C22.9332 66.5564 22.9332 60.9705 23.3433 58.1189C24.4762 50.5994 26.9762 44.9939 33.9879 34.2322C39.8472 25.2088 41.7027 19.9353 41.2144 13.6658C40.8433 8.99782 38.6363 3.45094 35.9801 0.618912C35.1207 -0.299057 34.0465 -0.162338 33.4605 0.931412C33.0894 1.61501 33.1676 1.82985 34.3199 3.52907C36.4293 6.61501 37.6988 10.0134 38.0894 13.5681C38.6754 18.6658 36.898 23.9588 32.2105 31.2244C25.5699 41.5369 23.2457 46.0095 21.6246 51.5369C20.5308 55.2869 20.1207 57.9236 19.9644 62.2205L19.8472 65.7361L19.3004 64.5642C19.0074 63.9197 17.6988 61.4392 16.4097 59.0564C12.2691 51.3806 11.9762 50.4431 12.191 45.8338C12.4058 40.8338 14.066 35.8338 16.859 31.6931C17.3863 30.8924 19.4957 28.1775 21.5465 25.6385C23.5777 23.0994 25.8043 20.1697 26.4879 19.1541C30.8238 12.6697 31.7222 7.59157 29.4762 2.20094C28.6168 0.13063 27.6402 -0.474838 26.5074 0.423599C25.8433 0.931412 25.8433 1.77126 26.4879 3.15797C27.9722 6.40016 27.8355 9.85719 26.1168 13.5877C25.023 15.9509 23.1871 18.6072 19.066 23.7439C16.9176 26.4197 14.6519 29.3885 14.0269 30.3064C12.1129 33.1775 10.316 37.5134 9.74959 40.5799C9.6324 41.2635 9.45662 41.7517 9.3785 41.6736C9.16365 41.4197 8.441 37.2009 8.22615 34.8767C7.58162 27.8845 8.63631 20.5603 11.2535 13.783C12.6012 10.2673 14.1441 7.49391 16.6051 4.03688C18.148 1.86891 18.3043 1.28297 17.5035 0.501724C16.859 -0.162338 16.1949 -0.103745 15.3551 0.618912Z" fill="black"/>
<path d="M44.4566 0.501831C44.1832 0.755737 43.9683 1.18542 43.9683 1.45886C43.9683 1.71277 44.4566 2.86511 45.0426 4.01746C49.359 12.455 48.4215 20.0136 41.8004 30.0136C33.9683 41.8886 30.7066 49.369 29.398 58.6073C29.0465 61.0682 29.0074 66.5565 29.3199 69.1542C30.4332 78.3143 34.4371 87.5526 41.2535 96.6347C43.8707 100.131 44.4566 100.521 45.609 99.6034C45.9801 99.3104 46.1168 99.0175 46.1168 98.5292C46.1168 97.9823 45.7847 97.4159 44.3004 95.4628C38.734 88.1776 35.2574 81.4393 33.4996 74.5057C32.5816 70.8534 32.2301 68.0409 32.2301 64.2714C32.2496 58.6464 33.0894 54.1542 35.1207 48.744C35.9801 46.4393 38.8511 40.3456 39.0074 40.5018C39.0465 40.5409 38.9683 41.0878 38.8511 41.7323C38.6949 42.4745 38.5972 44.7597 38.5972 48.0604C38.5972 52.5917 38.6558 53.5292 39.0269 55.5995C41.566 69.33 48.0308 82.1229 59.9449 96.9472C60.9605 98.1972 62.0152 99.4081 62.2691 99.6229C62.9332 100.15 63.6168 100.111 64.1832 99.5253C65.0426 98.6854 64.8668 98.1581 62.7965 95.5018C59.1051 90.7753 55.7652 85.1307 54.0269 80.7753C53.5191 79.5057 53.4996 79.2714 53.5972 77.3573C53.9293 71.1268 57.4058 66.205 62.3082 65.0526C63.9683 64.662 67.816 64.9159 70.3355 65.5604C73.0894 66.2831 76.0777 66.3417 77.2886 65.6972C79.2613 64.6425 79.8472 63.1581 79.6324 59.7401C79.5152 57.6698 79.5152 57.5917 80.1011 56.2636C80.7847 54.7206 80.9019 52.9432 80.3746 51.9472C80.1011 51.4003 80.1011 51.2831 80.3941 50.5409C80.8238 49.4862 80.8433 47.494 80.4136 46.1268C80.0621 44.9159 80.1011 44.7987 81.3511 44.0761C83.2457 42.9628 84.359 41.0487 84.1441 39.2518C83.9683 37.8456 83.2652 36.7714 81.4293 35.1307C78.8511 32.8456 78.1871 32.1034 77.5816 30.912C76.6246 29.037 76.5465 28.4901 76.3902 23.2557C76.2535 18.8222 76.1949 18.0604 75.7457 16.3807C75.1793 14.1932 74.0855 11.7909 72.7965 9.79871C71.8004 8.25574 69.0074 5.24792 67.7965 4.40808C67.2496 4.01746 66.7613 3.39246 66.1754 2.29871C64.984 0.0330811 64.1441 -0.4552 63.0308 0.423706C62.2691 1.00964 62.3863 1.71277 63.5777 4.19324C65.4918 8.09949 66.1168 10.6776 66.1168 14.5643C66.0972 19.955 64.8082 23.2167 59.398 31.4589C52.3277 42.2597 48.9879 49.8182 47.7379 57.8456C47.5035 59.4667 47.4058 61.1854 47.4058 64.0761C47.4254 67.8065 47.5035 68.6854 48.1676 72.6698C48.2652 73.2948 48.2261 73.2557 47.6793 72.2401C46.8199 70.5995 45.2769 66.7714 44.3785 64.0175C40.7652 52.9042 40.5504 43.8222 43.7144 35.2675C43.9879 34.5057 45.0035 32.1815 45.9801 30.0917C48.4019 24.7987 49.3785 22.3573 50.0426 19.7401C51.4488 14.3885 50.8043 8.90027 48.1676 3.37292C46.6051 0.130737 45.5894 -0.650513 44.4566 0.501831ZM69.8082 10.9901C70.9996 12.6698 71.9957 14.7206 72.6011 16.7518C73.0894 18.3339 73.1285 18.8807 73.2652 23.4511C73.4019 27.6893 73.48 28.6464 73.8511 29.8964C74.691 32.7675 75.6871 34.1151 79.6519 37.7284C81.566 39.4667 81.5074 40.3065 79.3785 41.6542C77.1715 43.0409 76.7808 44.0761 77.3863 46.7714C77.8355 48.8222 77.7574 49.5253 76.9566 49.994C75.7652 50.6581 75.7847 52.1034 76.9761 52.8261C77.7183 53.2557 77.7379 53.8807 77.0347 55.4042C76.5074 56.5175 76.4879 56.6542 76.5465 59.3886C76.605 62.8456 76.5465 62.9432 74.9058 63.0604C74.0855 63.0995 73.0113 62.9628 71.1168 62.5136C67.7379 61.7323 63.5386 61.4979 61.5465 62.0057C57.3668 63.0409 54.2027 65.8339 52.1129 70.3261L51.273 72.1229L51.0386 70.8729C50.0426 65.287 50.2965 59.4081 51.8004 53.7636C53.3433 47.9237 57.0543 40.4628 62.3277 32.6307C67.0738 25.5995 68.6558 21.8495 69.1636 16.4784C69.3394 14.5643 69.1441 10.4042 68.8316 9.91589C68.7926 9.83777 68.7926 9.77917 68.8511 9.77917C68.9097 9.77917 69.3394 10.326 69.8082 10.9901Z" fill="black"/>
<path d="M91.9176 0.228396C91.6832 0.345584 91.0191 1.32215 90.4332 2.4159L89.3394 4.40808L87.5426 5.40418C85.2379 6.69324 84.984 6.92762 84.984 7.82605C84.984 8.72449 85.2379 8.95887 87.5426 10.2479L89.3394 11.244L90.4332 13.2362C91.5855 15.3456 92.0934 15.8143 93.0894 15.5604C93.5973 15.4237 94.0074 14.8768 95.2379 12.5721C95.8238 11.4979 96.1559 11.0878 96.7809 10.7557C99.359 9.34949 100.023 8.90027 100.238 8.37293C100.707 7.24012 100.257 6.7909 96.7809 4.89637C96.1363 4.5448 95.8238 4.15418 95.023 2.68933C93.6363 0.0916777 93.0894 -0.33801 91.9176 0.228396ZM94.5934 7.24012C95.1207 7.51355 95.5309 7.76746 95.5309 7.82605C95.5309 7.88465 95.1207 8.13855 94.5934 8.41199C93.9293 8.76355 93.5387 9.15418 93.1676 9.83777L92.6598 10.7753L92.0738 9.79871C91.7027 9.2323 91.1363 8.64637 90.6676 8.37293C90.2379 8.13855 89.8668 7.88465 89.8668 7.82605C89.8668 7.76746 90.2379 7.51355 90.6676 7.27918C91.1363 7.00574 91.7027 6.4198 92.0738 5.8534L92.6598 4.87683L93.1676 5.81434C93.5387 6.49793 93.9293 6.88855 94.5934 7.24012Z" fill="black"/>
<path d="M85.9605 20.5018C83.773 21.2244 82.5621 22.8065 82.5621 25.0135C82.5621 29.1737 87.5035 31.244 90.4332 28.3143C93.2457 25.5018 91.5074 20.6776 87.5816 20.4041C86.9566 20.3651 86.234 20.4041 85.9605 20.5018ZM88.1871 23.8612C89.2027 24.6619 88.5387 26.576 87.2301 26.576C86.6051 26.576 85.5699 25.5994 85.5699 25.0135C85.5699 24.4471 86.6051 23.451 87.191 23.451C87.4449 23.451 87.8941 23.6268 88.1871 23.8612Z" fill="black"/>
</g>
<defs>
<clipPath id="clip0_207_247">
<rect width="100" height="100" fill="white"/>
</clipPath>
</defs>
</svg>
