<svg width="66" height="70" viewBox="0 0 66 70" fill="none" xmlns="http://www.w3.org/2000/svg">
<path d="M38.5088 36.9688L41.5581 48.1688L44.6075 36.9688C45.3731 34.1556 45.7581 32.7469 46.5106 31.5875C47.1745 30.5694 48.0431 29.7007 49.0612 29.0369C50.2119 28.2844 51.6206 27.9038 54.4425 27.1338L65.6425 24.0844L54.4425 21.035C51.6294 20.2694 50.225 19.8844 49.0612 19.1319C48.0431 18.468 47.1745 17.5994 46.5106 16.5812C45.7581 15.4306 45.3775 14.0219 44.6075 11.2L41.5581 0L38.5088 11.2C37.7431 14.0131 37.3581 15.4219 36.6056 16.5812C35.9418 17.5994 35.0731 18.468 34.055 19.1319C32.9044 19.8844 31.4956 20.265 28.6737 21.035L17.4738 24.0844L28.6737 27.1338C31.4869 27.8994 32.8956 28.2844 34.055 29.0369C35.0731 29.7007 35.9418 30.5694 36.6056 31.5875C37.3581 32.7381 37.7388 34.1469 38.5088 36.9688ZM11.7338 59.9813C12.4731 61.0488 12.8888 62.3525 13.7288 64.9688L15.3125 69.8688L16.8962 64.9688C17.7319 62.3656 18.1519 61.0619 18.8912 59.9813C19.5431 59.0363 20.3787 58.2313 21.3456 57.6056C22.435 56.9012 23.7519 56.525 26.3769 55.7769L30.625 54.565L26.3769 53.3531C23.7475 52.6006 22.4306 52.2244 21.3456 51.5244C20.3794 50.9014 19.5454 50.0942 18.8912 49.1488C18.1519 48.0812 17.7362 46.7775 16.8962 44.1613L15.3125 39.2612L13.7288 44.1613C12.8931 46.7644 12.4731 48.0681 11.7338 49.1488C11.0819 50.0938 10.2463 50.8988 9.27938 51.5244C8.19 52.2288 6.87313 52.605 4.24812 53.3531L0 54.565L4.24812 55.7769C6.8775 56.5294 8.19438 56.9056 9.27938 57.6056C10.2456 58.2286 11.0796 59.0358 11.7338 59.9813Z" fill="#DDB565"/>
</svg>
