<svg width="50" height="52" viewBox="0 0 50 52" fill="none" xmlns="http://www.w3.org/2000/svg">
<circle cx="25" cy="25" r="25" fill="#2E2622"/>
<path d="M24.6904 20.744C26.5037 20.744 28.0077 21.224 29.2024 22.184C30.397 23.1227 30.9944 24.6053 30.9944 26.632C30.9944 28.6373 30.2904 30.28 28.8824 31.56C27.4957 32.84 25.725 33.48 23.5704 33.48C22.0344 33.48 20.797 33.192 19.8584 32.616C18.9197 32.04 18.4504 31.2827 18.4504 30.344C18.4504 29.768 18.621 29.3307 18.9624 29.032C19.325 28.712 19.7624 28.552 20.2744 28.552C20.5517 30.4507 21.6717 31.4 23.6344 31.4C24.8504 31.4 25.8317 31.0053 26.5784 30.216C27.325 29.4053 27.6984 28.36 27.6984 27.08C27.6984 25.7787 27.3144 24.84 26.5464 24.264C25.7997 23.688 24.9144 23.4 23.8904 23.4C22.8664 23.4 21.725 23.624 20.4664 24.072L20.0504 23.848L20.4984 13.256H29.6824L29.4264 15.848H22.4504L22.2584 21.032C23.005 20.84 23.8157 20.744 24.6904 20.744Z" fill="#E2D2BA"/>
</svg>
