<svg width="50" height="52" viewBox="0 0 50 52" fill="none" xmlns="http://www.w3.org/2000/svg">
<circle cx="25" cy="25" r="25" fill="#2E2622"/>
<path d="M25.7159 20.04C26.3985 19.3573 26.7399 18.5573 26.7399 17.64C26.7399 15.8693 25.9185 14.984 24.2759 14.984C23.3372 14.984 22.6332 15.2827 22.1639 15.88C21.7159 16.4773 21.4705 17.2133 21.4279 18.088C20.6385 18.0667 20.0519 17.8853 19.6679 17.544C19.2839 17.2027 19.1025 16.744 19.1239 16.168C19.1665 15.2507 19.6679 14.4827 20.6279 13.864C21.5879 13.2453 22.8785 12.936 24.4999 12.936C26.1212 12.936 27.4545 13.3413 28.4999 14.152C29.5452 14.9627 30.0679 16.0507 30.0679 17.416C30.0679 18.4187 29.7479 19.368 29.1079 20.264C28.4679 21.1387 27.4225 21.8213 25.9719 22.312C27.5292 22.504 28.7665 23.0587 29.6839 23.976C30.6225 24.872 31.0919 26.0133 31.0919 27.4C31.0919 29.1067 30.3879 30.5467 28.9799 31.72C27.5932 32.8933 25.7692 33.48 23.5079 33.48C21.9079 33.48 20.6385 33.1813 19.6999 32.584C18.7612 31.9653 18.2919 31.176 18.2919 30.216C18.2919 29.704 18.4625 29.256 18.8039 28.872C19.1452 28.4667 19.6465 28.2533 20.3079 28.232C20.3719 29.1493 20.7025 29.896 21.2999 30.472C21.8972 31.0267 22.7399 31.304 23.8279 31.304C24.9372 31.304 25.8545 30.9733 26.5799 30.312C27.3052 29.6507 27.6572 28.7547 27.6359 27.624C27.6145 26.8773 27.4225 26.248 27.0599 25.736C26.6972 25.2027 26.2065 24.8187 25.5879 24.584C24.4572 24.1573 23.0919 23.9867 21.4919 24.072L21.4599 21.704C23.1879 21.704 24.6065 21.1493 25.7159 20.04Z" fill="#E2D2BA"/>
</svg>
