<svg width="50" height="52" viewBox="0 0 50 52" fill="none" xmlns="http://www.w3.org/2000/svg">
<circle cx="25" cy="25" r="25" fill="#2E2622"/>
<path d="M17.6945 17.416C17.6945 16.1573 18.2918 15.1013 19.4865 14.248C20.6812 13.3733 22.1958 12.936 24.0305 12.936C25.8652 12.936 27.3265 13.4373 28.4145 14.44C29.5025 15.4427 30.0465 16.7547 30.0465 18.376C30.0465 20.4667 29.1505 22.6107 27.3585 24.808C26.7398 25.5547 26.2278 26.152 25.8225 26.6C25.4385 27.048 24.8732 27.6027 24.1265 28.264C23.1452 29.16 22.2278 29.96 21.3745 30.664H28.7345L28.9585 28.776C29.0225 28.264 29.2572 27.9227 29.6625 27.752C30.0678 27.56 30.4625 27.528 30.8465 27.656V32.968H17.5985C17.3212 32.136 17.2038 31.5707 17.2465 31.272C19.8492 28.9253 21.6092 27.2507 22.5265 26.248C25.2572 23.2613 26.6225 20.648 26.6225 18.408C26.6225 17.4053 26.3665 16.6053 25.8545 16.008C25.3425 15.4107 24.5852 15.112 23.5825 15.112C21.4278 15.112 20.3505 16.6267 20.3505 19.656C19.6465 19.6987 19.0278 19.5493 18.4945 19.208C17.9612 18.8667 17.6945 18.2693 17.6945 17.416Z" fill="#E2D2BA"/>
</svg>
