<svg width="50" height="52" viewBox="0 0 50 52" fill="none" xmlns="http://www.w3.org/2000/svg">
<circle cx="25" cy="25" r="25" fill="#2E2622"/>
<path d="M28.3449 33H19.9929V32.744C19.9929 31.9973 20.2169 31.5067 20.6649 31.272C20.8355 31.1653 21.0275 31.112 21.2409 31.112L23.2569 31.048V16.616L21.1769 17.288C20.6862 17.4373 20.2595 17.3093 19.8969 16.904C19.5555 16.4773 19.3955 16.1147 19.4169 15.816L23.8969 13.288C24.3235 13.0533 24.8035 12.936 25.3369 12.936C26.1049 12.936 26.4889 13.416 26.4889 14.376V30.984L29.5929 31.176C29.7209 32.392 29.3049 33 28.3449 33Z" fill="#E2D2BA"/>
</svg>
