<svg width="100" height="100" viewBox="0 0 100 100" fill="none" xmlns="http://www.w3.org/2000/svg">
<path d="M83.0469 9.51172C82.793 9.60938 57.7148 35.5664 56.7969 36.6797L56.25 37.3438V40.957V44.5703L56.9141 45.2344L57.5781 45.8984H61.2305H64.9023L66.3086 44.4727C67.4805 43.3203 85.4297 24.668 90.2734 19.6094C91.4453 18.3594 91.6016 18.125 91.6016 17.4414C91.6016 16.9336 91.4453 16.4648 91.1133 16.0156C90.5469 15.2539 85.4688 10.0781 84.8633 9.64844C84.4922 9.375 83.5547 9.31641 83.0469 9.51172ZM86.5234 17.3047C86.5234 17.5977 68.5547 36.2305 68.2617 36.2305C68.1445 36.2305 67.5 35.6445 66.8164 34.9219L65.5859 33.5938L65.957 33.125C66.1523 32.8711 70.2539 28.5742 75.0977 23.5547L83.8867 14.4531L85.1953 15.7617C85.9375 16.4844 86.5234 17.1875 86.5234 17.3047ZM64.043 38.0859L65.2539 39.4531L64.2383 40.625L63.2227 41.7969H61.7969H60.3516V40.4102V39.0234L61.3477 37.8711C61.9141 37.2461 62.4609 36.7188 62.5781 36.7188C62.7148 36.7188 63.3594 37.3438 64.043 38.0859Z" fill="black"/>
<path d="M46.9726 47.09C40.7812 47.9103 31.6797 50.0588 20.9961 53.2033C15.1953 54.9025 14.6484 55.1174 13.3789 56.2892C12.4414 57.1486 12.0703 57.7541 10.3515 61.133C8.32029 65.1955 8.10545 65.8986 8.71092 66.7775C8.8867 67.0314 9.33592 67.3439 9.68748 67.5002C10.2734 67.7541 10.6836 67.6955 15.0781 66.7189C29.0234 63.6134 39.7851 61.7775 45.332 61.5822C50.8984 61.3869 57.4219 62.3634 67.9883 64.9806C71.0742 65.7424 71.582 65.7424 72.3828 64.9416C72.7344 64.59 72.8515 64.258 72.8515 63.5939C72.8515 62.7736 72.7539 62.5783 71.5234 61.1916C68.4766 57.7345 63.0664 52.9103 59.7461 50.6838C57.7734 49.3752 55.3906 48.1447 53.6133 47.5588C51.8359 46.9533 49.2578 46.7775 46.9726 47.09ZM51.7383 51.2697C53.3008 51.6408 55.8398 52.9689 58.0469 54.5509C59.8633 55.8595 64.3164 59.5705 64.1992 59.6877C64.1601 59.7267 62.5976 59.4533 60.7226 59.0822C52.7734 57.5197 48.0078 57.0509 43.8086 57.4025C38.8086 57.8322 30.0586 59.297 19.7656 61.4455C16.9336 62.0314 14.5703 62.4806 14.5117 62.422C14.3359 62.2658 15.5859 59.8439 16.0937 59.3361C16.6797 58.7502 17.6367 58.4377 24.8047 56.3674C33.3203 53.9259 40.7031 52.1681 45.3125 51.4845C49.1406 50.9181 50.0781 50.8791 51.7383 51.2697Z" fill="black"/>
<path d="M60.5664 73.4571C57.3633 73.8673 55.293 74.9806 51.7773 78.1446C47.168 82.3048 45.5273 83.5157 42.9101 84.7853C39.8047 86.2696 36.6992 86.7188 32.2265 86.3282C24.6289 85.6837 18.9844 83.5157 14.9414 79.6876C13.0664 77.9103 12.0898 77.6954 11.0351 78.8282C10.0781 79.8634 10.332 81.0548 11.8555 82.5782C15.6836 86.3673 21.5039 89.0235 28.6133 90.1759C30.1953 90.4298 31.8359 90.5079 34.8633 90.5079C38.6719 90.5079 39.1015 90.4688 40.8789 89.9806C43.0664 89.3946 45.8789 88.1251 47.6562 86.9142L48.8672 86.0938L51.9336 88.1642C53.6328 89.3165 55.2734 90.3517 55.6055 90.4688C57.4805 91.172 59.1992 88.7501 57.8711 87.2462C57.6758 87.0313 56.3476 86.0743 54.9023 85.1173L52.2851 83.3595L52.8906 82.754L53.4961 82.1485L55.3906 82.5782C58.1445 83.2032 59.3945 83.8282 60.5469 85.1563C61.6601 86.4259 62.3242 86.6798 63.3984 86.2306C64.3164 85.8399 64.7851 84.8048 64.4726 83.7696C63.9844 82.129 61.5039 80.1173 58.8867 79.1993C57.5976 78.7501 57.5781 78.7501 58.0273 78.4571C58.9453 77.8712 60.9375 77.5001 62.6953 77.5782C64.5508 77.6759 65.5078 78.047 66.9922 79.2774C67.4805 79.6876 68.125 80.0782 68.418 80.1563C69.6875 80.4688 71.0937 79.0235 70.8008 77.6954C70.625 76.8946 69.082 75.4298 67.5976 74.629C65.625 73.5938 62.9492 73.1446 60.5664 73.4571Z" fill="black"/>
</svg>
