<svg width="100" height="101" viewBox="0 0 100 101" fill="none" xmlns="http://www.w3.org/2000/svg">
<path d="M52.832 1.90625C52.3047 2.00391 50.3515 2.43359 48.5156 2.84375L45.1953 3.625L40.9961 3.11719C34.1992 2.29688 35.4492 2.0625 20.8593 6.92578C12.7929 9.62109 8.3984 11.1641 8.32028 11.3594C8.0859 12.0039 9.55075 13.918 10.8789 14.6992C11.6015 15.1289 12.0898 15.2461 13.3593 15.3047C15.2343 15.4023 16.0156 15.168 16.0156 14.5039C16.0156 13.7422 15.6836 13.6055 14.2578 13.7227C12.6562 13.8594 11.7968 13.6055 10.957 12.7266L10.3125 12.0625L21.914 8.19531L33.4961 4.30859L36.1328 4.32812C37.5781 4.34766 39.1601 4.44531 39.6289 4.52344C40.4687 4.69922 40.3711 4.73828 36.8164 5.53906C34.7851 6.00781 32.6562 6.57422 32.0703 6.80859C31.4843 7.04297 25.2343 10.9492 18.1836 15.4609C7.16793 22.5312 5.37106 23.7617 5.31247 24.1914C5.25387 24.6016 5.44918 24.8555 6.28903 25.5195C7.69528 26.6328 9.12106 27.2578 10.8984 27.5312L12.3828 27.7656L10.3711 29.3867C8.67184 30.7734 8.37887 31.0859 8.43747 31.5156C8.55465 32.5312 11.4648 33.5078 14.3164 33.5078C16.4062 33.5078 18.0078 33.1172 19.7656 32.1992C21.1132 31.4961 21.5039 30.9688 21.0937 30.4805C20.7422 30.0508 20.3125 30.1094 19.1211 30.7539C17.3242 31.7305 16.0156 32.0039 13.789 31.9062C12.6953 31.8477 11.5234 31.6914 11.1914 31.5352L10.5468 31.2617L22.3632 21.6133C34.6875 11.5352 34.8242 11.3984 33.7695 10.8516C33.5351 10.7148 33.2812 10.6953 33.1445 10.8125C33.0078 10.9102 29.0039 14.1719 24.2382 18.0781C19.4531 21.9648 15.1562 25.3438 14.6679 25.5781C13.9648 25.8906 13.3789 25.9688 12.0117 25.9883C10.3711 25.9883 10.1367 25.9297 8.88668 25.3047C8.1445 24.9336 7.49997 24.5234 7.48043 24.4062C7.44137 24.2891 8.22262 23.6836 9.21872 23.0391C10.2148 22.4141 15.7226 18.8789 21.4648 15.207C30.6445 9.30859 32.1093 8.42969 33.4765 8.01953C36.5625 7.0625 52.9883 3.39062 54.6093 3.29297C57.2265 3.11719 58.7304 3.54688 64.707 6.14453C67.6367 7.41406 72.3437 9.46484 75.1953 10.7148C78.0468 11.9453 81.1133 13.1953 82.0312 13.4688C85.332 14.4648 89.1211 14.7969 92.5781 14.3477C94.4336 14.1328 94.7656 13.9375 94.6875 13.2148C94.6289 12.6289 94.5508 12.6289 90.7031 12.9023C88.2031 13.0781 85.664 12.8242 83.0468 12.1211C81.289 11.6523 79.7851 11.0273 67.0898 5.48047C61.6601 3.11719 59.6484 2.31641 58.3008 2.04297C56.4258 1.65234 54.414 1.59375 52.832 1.90625Z" fill="black"/>
<path d="M50.293 8.80089C44.1016 9.73839 42.8906 9.9923 41.25 10.8321C39.6094 11.6525 38.9062 12.2384 29.9023 20.129C23.5351 25.6954 21.6797 27.4337 21.7187 27.7462C21.7578 28.0001 22.168 28.3321 22.9492 28.7228C25.3711 29.9337 28.8086 29.5235 31.6797 27.7071C32.0898 27.4728 32.5195 27.2579 32.6562 27.2579C32.793 27.2579 36.2109 28.5665 40.2734 30.1681C48.8867 33.586 49.5508 33.8204 52.0898 34.0743C57.0898 34.5821 70.2148 34.504 87.8125 33.8204C94.1797 33.586 94.7266 33.5079 94.7266 32.8048C94.7266 32.1993 94.1601 31.965 92.9101 32.0626C90.7422 32.2189 80.9961 32.5314 70.8984 32.7462C59.5117 32.9806 52.4414 32.8048 50.0976 32.1798C48.2226 31.6915 34.1211 26.0665 34.3164 25.8907C34.3945 25.8126 35.5664 24.9337 36.8945 23.9376L39.3164 22.1212L41.4844 22.7462C44.668 23.6837 46.6211 23.8985 48.7695 23.5079C49.707 23.3517 51.4062 22.8439 52.5 22.4142L54.5117 21.6329L56.4062 22.8243C60.957 25.6759 64.9414 26.8673 70 26.8673C72.5976 26.8673 74.6875 26.6134 75.1562 26.2423C75.2734 26.1251 75.3906 25.8712 75.3906 25.6759C75.3906 25.09 74.7851 24.9142 73.5156 25.1095C71.7969 25.4025 67.8516 25.3439 65.9766 25.0118C64.1211 24.6993 61.4258 23.8009 59.7461 22.9415C59.1406 22.6485 57.1484 21.4181 55.3125 20.2267C53.4766 19.0353 51.582 17.922 51.1328 17.7657C50.0195 17.3556 45.957 17.1798 44.4336 17.4728C42.6367 17.8048 41.6601 18.3907 37.0117 21.9064C31.5625 26.0079 30.3516 26.8087 28.75 27.3751C27.0703 27.961 23.8476 28.0196 24.0625 27.4337C24.1992 27.0626 40 13.4103 41.0351 12.7657C42.9101 11.6329 44.1992 11.3009 50.8594 10.3439C54.3164 9.83605 57.2461 9.34776 57.3828 9.23058C57.5195 9.11339 57.6172 8.80089 57.5781 8.52745C57.5195 8.07823 57.4219 8.01964 56.7383 7.98058C56.3086 7.96105 53.418 8.33214 50.293 8.80089ZM50.8203 19.3087C51.2109 19.4845 51.8555 19.836 52.2461 20.09L52.9687 20.5782L51.3672 21.1837C48.3398 22.3556 45.6641 22.4142 42.2851 21.379L40.9375 20.9689L41.5039 20.4806C42.2851 19.8556 43.3789 19.2892 44.2773 19.0548C45.4101 18.7814 49.9609 18.9376 50.8203 19.3087Z" fill="black"/>
<path d="M36.4844 39.7969C35.5469 40.5587 36.25 46.1446 37.7149 49.5821C39.3164 53.3712 42.6172 56.9454 46.1328 58.7227C49.5508 60.4415 53.75 60.5587 56.836 58.9962L57.8125 58.5079L59.3164 59.2501C60.1563 59.6798 61.5625 60.3048 62.4414 60.6563C63.7696 61.2032 64.0821 61.2618 64.336 61.0469C64.5117 60.9102 64.6485 60.5977 64.6485 60.3633C64.6485 59.9923 64.375 59.7969 62.9492 59.1915C60.4102 58.1173 57.3242 56.5352 55.4492 55.3829C52.6563 53.6251 52.8516 53.918 52.8516 51.5157C52.8321 49.7969 52.7539 49.2696 52.4024 48.4883C51.9532 47.5118 51.4649 47.2969 50.8985 47.8633C50.6446 48.1173 50.6641 48.293 50.9961 49.3087C51.25 50.0313 51.3672 50.8321 51.3282 51.4962L51.2696 52.5118L50 51.4766C49.2969 50.9102 47.6758 49.3868 46.4063 48.1173C44.4922 46.2032 44.0039 45.8126 43.6328 45.8907C43.0469 46.0469 42.8907 46.5548 43.2617 47.1212C43.8282 47.961 47.3242 51.3399 49.2188 52.8633C50.9375 54.2305 53.5157 56.0274 55.3711 57.1407L56.1328 57.6094L55.3516 57.961C50.7617 59.9532 44.2969 57.2188 40.7617 51.7891C38.9063 48.9571 37.9688 46.1837 37.7539 42.9415L37.6367 41.1446L39.375 41.2423C48.2032 41.7696 53.6328 44.3282 56.0547 49.1329C56.8164 50.6368 57.2266 52.336 57.2266 53.9962C57.2266 55.168 57.2852 55.4024 57.6172 55.5782C57.8907 55.7344 58.125 55.7344 58.3985 55.5782C58.7305 55.4024 58.7891 55.168 58.7891 53.9376C58.7891 50.7344 57.461 47.6094 55.0782 45.2071C51.875 41.9844 47.2461 40.2462 40.4297 39.7774C36.8555 39.5235 36.8555 39.5235 36.4844 39.7969Z" fill="black"/>
<path d="M30.7617 66.6524C26.1719 66.7305 12.7344 67.1407 9.33594 67.2774C5.89844 67.4337 5.27344 67.5704 5.27344 68.1954C5.27344 68.8008 5.83984 69.0352 7.08984 68.9376C9.21875 68.7813 18.9258 68.4883 29.1016 68.254C40.0977 68.0001 47.5 68.1954 49.8047 68.7813C50.8789 69.0547 64.7266 74.4063 65.5664 74.8751C65.7812 75.0118 65.2148 75.5196 63.3203 76.9258C61.9336 77.9805 60.6836 78.8204 60.5273 78.8204C60.3711 78.8204 59.375 78.5469 58.3008 78.2344C54.0625 76.9454 51.2305 77.1016 46.9336 78.8399L45.5273 79.4063L43.9062 78.3516C38.7695 75.0313 33.418 73.6251 27.8516 74.1329C25.4883 74.3672 24.7266 74.6212 24.6484 75.2266C24.5508 75.9493 25.0195 76.1251 26.3867 75.8907C28.2031 75.5977 32.1094 75.6563 34.0234 75.9883C35.8984 76.3204 38.5742 77.1993 40.332 78.0977C40.9766 78.4102 42.9687 79.6407 44.7656 80.8126C46.5625 81.9844 48.3984 83.0587 48.8672 83.2344C49.9805 83.6251 53.6523 83.8008 55.3516 83.5469C56.0937 83.4297 57.1484 83.0977 57.6953 82.8438C58.2422 82.5704 60.625 80.8712 62.9883 79.0938C68.3398 75.0508 69.7851 74.0938 71.3281 73.5665C72.9297 73.0196 76.1328 73.0196 75.9375 73.5665C75.8984 73.6446 72.2266 76.9063 67.7539 80.8126C59.4336 88.0782 58.4766 88.8008 56.1719 89.4649C55.5469 89.6407 52.2266 90.2071 48.7891 90.7149C42.0312 91.7305 41.7383 91.8087 42.4609 92.8047C42.7344 93.1758 42.832 93.1563 48.6719 92.336C55.6836 91.3204 56.6211 91.1251 58.457 90.2657C60.3516 89.3868 60.6836 89.1329 70.0976 80.8907C76.6601 75.168 78.3203 73.6055 78.2812 73.2735C78.1836 72.6094 76.1719 71.7501 74.5117 71.6329C72.6367 71.5157 71.1523 71.8672 69.1016 72.9024L67.3828 73.8008L59.4141 70.6563C55.0391 68.9376 50.8203 67.3751 50.0195 67.1993C47.5586 66.6719 40.4102 66.4571 30.7617 66.6524ZM55.0977 78.9962C55.7031 79.0938 56.8359 79.3672 57.6172 79.6212L59.0625 80.0508L58.4766 80.5196C58.1641 80.793 57.4805 81.2227 56.9336 81.4766C56.0352 81.9063 55.7227 81.9454 53.0078 81.9454C51.25 81.9454 49.7852 81.8477 49.3945 81.711C48.5352 81.418 47.2461 80.5782 47.3633 80.3829C47.4219 80.3047 48.1055 79.9922 48.8867 79.7188C51.1523 78.879 53.0469 78.6641 55.0977 78.9962Z" fill="black"/>
<path d="M82.5195 67.8633C80.9765 68.293 78.9453 69.4062 78.789 69.875C78.6523 70.3242 79.0234 70.8125 79.4726 70.8125C79.6679 70.8125 80.2929 70.5586 80.8789 70.2461C82.6757 69.2695 83.9843 68.9961 86.2109 69.0938C87.3046 69.1523 88.4765 69.3086 88.8281 69.4648L89.4726 69.7383L77.6367 79.4062C65.4882 89.3477 65.1953 89.6211 66.1718 90.1094C66.3476 90.207 66.6211 90.2461 66.7578 90.1875C66.914 90.1484 70.957 86.8867 75.7421 82.9609C80.5468 79.0352 84.8632 75.6562 85.3515 75.4219C86.0351 75.1094 86.6406 75.0312 87.9882 75.0117C89.6289 75.0117 89.8632 75.0703 91.1132 75.6953C91.875 76.0664 92.4804 76.4961 92.4804 76.6133C92.4804 76.8086 74.7656 88.3516 69.1406 91.8281C67.5195 92.8242 66.6406 93.0781 56.4257 95.4609C47.3242 97.5703 46.8945 97.6484 44.7265 97.6484C43.1054 97.668 42.1484 97.5703 41.3086 97.2969C40.664 97.1211 35.5273 94.9531 29.8828 92.4922C24.2383 90.0508 18.9258 87.8047 18.0468 87.5508C14.8633 86.5547 10.8593 86.2227 7.42185 86.6523C5.56638 86.8672 5.23435 87.0625 5.31247 87.7852C5.37107 88.2539 5.42966 88.293 6.34763 88.2539C12.5781 87.9609 14.9414 88.1562 18.2617 89.2695C19.0234 89.5234 24.1797 91.7109 29.7265 94.1328C35.2734 96.5547 40.3711 98.6836 41.0547 98.8594C41.9336 99.1133 42.9883 99.2109 44.7265 99.2109C46.9531 99.2109 47.5195 99.1133 51.0156 98.293L54.8632 97.375L59.0234 97.8828C65.7422 98.7031 64.6093 98.918 78.9453 94.1523C85.6445 91.9258 91.2304 90.0117 91.3671 89.8945C91.7968 89.543 91.6015 88.8984 90.7421 87.7852C89.5507 86.2617 88.3007 85.6562 86.4062 85.6562C84.6093 85.6562 83.9843 85.8711 83.9843 86.5156C83.9843 87.1992 84.2382 87.2773 86.1328 87.2969C87.5781 87.3164 87.9101 87.375 88.5156 87.7852C90.1171 88.8984 90.8203 88.5469 78.0664 92.8242L66.5039 96.6914L63.8672 96.6719C62.4218 96.6523 60.8593 96.5547 60.3906 96.4766C59.5898 96.3008 59.707 96.2617 63.2226 95.4414C65.2343 94.9922 67.4218 94.3867 68.0664 94.1133C69.0625 93.6836 93.4179 78.3125 94.3945 77.4922C94.9609 77.0039 94.8046 76.3789 93.9062 75.5977C92.6562 74.543 90.8789 73.7422 89.1601 73.4883L87.6367 73.2344L89.6289 71.6328C92.0117 69.6602 92.1289 69.3281 90.625 68.5664C90.0976 68.293 89.1601 67.9414 88.5351 67.7852C87.0312 67.3945 84.0039 67.4336 82.5195 67.8633Z" fill="black"/>
</svg>
