<svg width="100" height="101" viewBox="0 0 100 101" fill="none" xmlns="http://www.w3.org/2000/svg">
<path d="M48.9258 7.23828L48.4375 7.70703V18.4687V29.2305L48.9258 29.6992C49.5508 30.3438 50.4492 30.3438 51.0742 29.6992L51.5625 29.2305V18.4687V7.70703L51.0742 7.23828C50.7812 6.92578 50.3711 6.75 50 6.75C49.6289 6.75 49.2188 6.92578 48.9258 7.23828Z" fill="black"/>
<path d="M11.4258 11.9258C11.0938 12.2383 10.9375 12.6094 10.9375 13.0391C10.9375 13.6251 11.8945 14.6407 22.3242 25.0508C34.8438 37.5899 34.3945 37.2188 35.5664 36.0665C36.7188 34.8946 37.0898 35.3438 24.5508 22.8047C14.1406 12.3946 13.125 11.4376 12.5391 11.4376C12.1094 11.4376 11.7383 11.5938 11.4258 11.9258Z" fill="black"/>
<path d="M33.5156 11.8477C33.1445 12.1406 33.0078 12.4336 33.0078 12.9024C33.0078 13.6836 40.0781 30.8906 40.625 31.4375C41.4258 32.2383 43.1641 31.5547 43.1641 30.4219C43.1641 29.6016 35.9766 12.375 35.4297 11.8672C34.8242 11.3203 34.1797 11.3203 33.5156 11.8477Z" fill="black"/>
<path d="M64.5898 11.8672C64.0234 12.3946 56.8359 29.5821 56.8359 30.4024C56.8359 31.5352 58.5742 32.2578 59.375 31.4375C59.9414 30.8711 66.9922 13.7031 66.9922 12.9219C66.9922 12.4336 66.8555 12.1406 66.4844 11.8477C65.8203 11.3203 65.1758 11.3203 64.5898 11.8672Z" fill="black"/>
<path d="M75.4492 22.8047C62.9101 35.3438 63.2812 34.8946 64.4335 36.0665C65.6054 37.2188 65.1562 37.5899 77.6953 25.0508C88.1054 14.6407 89.0624 13.6251 89.0624 13.0391C89.0624 12.6094 88.9062 12.2383 88.5742 11.9258C88.2617 11.5938 87.8906 11.4376 87.4609 11.4376C86.8749 11.4376 85.8593 12.3946 75.4492 22.8047Z" fill="black"/>
<path d="M46.7969 33.625C43.5742 34.2109 40.332 35.9492 37.8906 38.3906C31.1719 45.0898 31.1719 55.9297 37.8711 62.6289C44.5898 69.3476 55.3906 69.3281 62.1094 62.6094C68.8086 55.9297 68.8477 45.1875 62.207 38.4687C58.1836 34.3672 52.5 32.5898 46.7969 33.625ZM54.1406 37.082C56.4258 37.8047 58.1055 38.8398 59.8828 40.6172C61.6406 42.375 62.6758 44.0351 63.4375 46.3594C63.8672 47.668 63.9453 48.1953 63.9258 50.5C63.9258 52.8242 63.8672 53.3125 63.418 54.6992C62.6758 56.9453 61.6406 58.5859 59.8633 60.3633C58.0859 62.1406 56.4453 63.1758 54.1992 63.918C52.8125 64.3672 52.3242 64.4258 50 64.4258C47.6758 64.4258 47.1875 64.3672 45.8008 63.918C43.5742 63.1758 41.9336 62.1601 40.1367 60.3633C38.3594 58.5859 37.3242 56.9453 36.582 54.6992C36.1328 53.3125 36.0742 52.8242 36.0742 50.5C36.0742 48.1758 36.1328 47.6875 36.582 46.3008C37.3242 44.0351 38.3594 42.4141 40.1367 40.6367C42.3633 38.4297 44.7461 37.1406 47.5391 36.6328C49.2383 36.3203 52.4414 36.5351 54.1406 37.082Z" fill="black"/>
<path d="M11.3477 34.0156C10.8203 34.6797 10.8203 35.3242 11.3867 35.9102C11.8945 36.4766 29.082 43.6641 29.9024 43.6641C31.1133 43.6641 31.7578 41.9844 30.8984 41.0859C30.3906 40.5586 13.1641 33.5078 12.4024 33.5078C11.9336 33.5078 11.6406 33.6445 11.3477 34.0156Z" fill="black"/>
<path d="M78.125 37.1406C73.3399 39.1328 69.2774 40.9102 69.1016 41.0664C68.5742 41.5352 68.6328 42.707 69.1992 43.2344C69.4531 43.4687 69.8633 43.6641 70.1172 43.6641C70.9375 43.6641 88.125 36.4766 88.6328 35.9297C89.5117 34.9531 88.8477 33.5078 87.5391 33.5273C87.0703 33.5273 83.8281 34.7773 78.125 37.1406Z" fill="black"/>
<path d="M6.73828 49.4258C6.42578 49.7188 6.25 50.1289 6.25 50.5C6.25 50.8711 6.42578 51.2812 6.73828 51.5742L7.20703 52.0625H17.9688H28.7305L29.1992 51.5742C29.8438 50.9492 29.8438 50.0508 29.1992 49.4258L28.7305 48.9375H17.9688H7.20703L6.73828 49.4258Z" fill="black"/>
<path d="M70.8008 49.4258C70.4883 49.7188 70.3125 50.1289 70.3125 50.5C70.3125 50.8711 70.4883 51.2812 70.8008 51.5742L71.2695 52.0625H82.0312H92.793L93.2617 51.5742C93.5742 51.2812 93.75 50.8711 93.75 50.5C93.75 50.1289 93.5742 49.7188 93.2617 49.4258L92.793 48.9375H82.0312H71.2695L70.8008 49.4258Z" fill="black"/>
<path d="M20.5274 61.0274C14.6485 63.4688 11.5235 64.8556 11.2891 65.1485C10.8204 65.7345 10.8399 66.379 11.3868 67.0235C11.7188 67.3946 12.0313 67.5509 12.4415 67.5313C13.1836 67.5118 30.4493 60.3829 30.9375 59.8751C31.7579 59.0743 31.0352 57.336 29.9024 57.336C29.629 57.3556 25.4102 58.9962 20.5274 61.0274Z" fill="black"/>
<path d="M69.2579 57.7461C68.6329 58.2344 68.5352 59.4258 69.1016 59.9336C69.668 60.4609 86.9141 67.4922 87.6172 67.4922C88.3399 67.4922 89.0625 66.7695 89.0625 66.0078C89.0625 65.0312 88.379 64.6602 79.3946 60.9688C74.5508 58.9766 70.4102 57.3359 70.1758 57.3359C69.961 57.3359 69.5508 57.5117 69.2579 57.7461Z" fill="black"/>
<path d="M33.6914 64.7383C33.3789 64.9336 28.125 70.1094 22.0312 76.2227C11.8945 86.3789 10.9375 87.375 10.9375 87.9609C10.9375 88.8203 11.6797 89.5625 12.5391 89.5625C13.125 89.5625 14.1406 88.6055 24.5508 78.1758C37.0508 65.6953 36.7187 66.0859 35.5859 64.9531C34.9023 64.2695 34.5117 64.2305 33.6914 64.7383Z" fill="black"/>
<path d="M64.4335 64.9336C63.2812 66.1055 62.9101 65.6562 75.4492 78.1758C85.8593 88.6055 86.8749 89.5625 87.4609 89.5625C88.3203 89.5625 89.0624 88.8203 89.0624 87.9609C89.0624 87.375 88.1054 86.3594 77.6953 75.9492C65.1562 63.4102 65.6054 63.7812 64.4335 64.9336Z" fill="black"/>
<path d="M40.5664 69.6015C40.0391 70.1875 33.0078 87.375 33.0078 88.0976C33.0078 88.5664 33.1445 88.8593 33.5156 89.1523C34.1797 89.6797 34.8242 89.6797 35.4297 89.1328C35.9766 88.625 43.1641 71.4179 43.1641 70.5976C43.1641 69.4843 41.3086 68.7617 40.5664 69.6015Z" fill="black"/>
<path d="M57.2461 69.7578C57.0117 70.0507 56.8359 70.4609 56.8359 70.6757C56.8359 71.4375 64.0625 88.6445 64.5898 89.1328C65.1758 89.6797 65.8203 89.6797 66.4844 89.1523C66.8555 88.8593 66.9922 88.5664 66.9922 88.0976C66.9922 87.3554 59.9805 70.207 59.4336 69.6015C58.9258 69.0351 57.7344 69.1328 57.2461 69.7578Z" fill="black"/>
<path d="M48.9258 71.3008L48.4375 71.7695V82.5312V93.293L48.9258 93.7617C49.5508 94.4063 50.4492 94.4063 51.0742 93.7617L51.5625 93.293V82.5312V71.7695L51.0742 71.3008C50.7812 70.9883 50.3711 70.8125 50 70.8125C49.6289 70.8125 49.2188 70.9883 48.9258 71.3008Z" fill="black"/>
</svg>
