<svg width="40" height="41" viewBox="0 0 40 41" fill="none" xmlns="http://www.w3.org/2000/svg">
<path d="M29.0325 23.4254L24.2125 31.1599C23.8015 31.7951 23.232 32.0567 22.5041 31.9446C21.7763 31.8325 21.3182 31.4028 21.1299 30.6555L19.5605 24.3782L4.2596 39.6791C3.84859 40.0901 3.33519 40.3053 2.71942 40.3248C2.10365 40.3442 1.57082 40.129 1.12095 39.6791C0.709933 39.2681 0.504426 38.745 0.504426 38.1098C0.504426 37.4746 0.709933 36.9515 1.12095 36.5404L16.4219 21.1835L10.1446 19.6141C9.39728 19.4273 8.96758 18.97 8.85549 18.2421C8.74339 17.5142 9.00495 16.944 9.64015 16.5315L17.3747 11.7675L16.7021 2.63178C16.6274 1.88448 16.9263 1.34269 17.5989 1.0064C18.2714 0.670121 18.888 0.744851 19.4484 1.23059L26.4544 7.11557L34.9175 3.69668C35.6274 3.39776 36.244 3.50986 36.7671 4.03296C37.2902 4.55607 37.4023 5.17259 37.1034 5.88253L33.6845 14.3457L39.5695 21.2956C40.0552 21.856 40.1299 22.4726 39.7936 23.1451C39.4574 23.8177 38.9156 24.1166 38.1683 24.0419L29.0325 23.4254ZM0.336284 8.40466C0.112094 8.18047 0 7.91892 0 7.62C0 7.32108 0.112094 7.05952 0.336284 6.83533L3.25075 3.92087C3.47494 3.69668 3.73649 3.58458 4.03541 3.58458C4.33433 3.58458 4.59588 3.69668 4.82007 3.92087L7.73454 6.83533C7.95873 7.05952 8.07082 7.32108 8.07082 7.62C8.07082 7.91892 7.95873 8.18047 7.73454 8.40466L4.82007 11.3191C4.59588 11.5433 4.33433 11.6554 4.03541 11.6554C3.73649 11.6554 3.47494 11.5433 3.25075 11.3191L0.336284 8.40466ZM23.9322 23.1451L26.6225 18.7174L31.8349 19.1097L28.4721 15.1303L30.4337 10.3103L25.6137 12.2719L21.6343 8.96513L22.0266 14.1215L17.5989 16.8678L22.6431 18.1009L23.9322 23.1451ZM32.3954 40.4638L29.4809 37.5493C29.2567 37.3251 29.1446 37.0636 29.1446 36.7646C29.1446 36.4657 29.2567 36.2042 29.4809 35.98L32.3954 33.0655C32.6196 32.8413 32.8811 32.7292 33.18 32.7292C33.479 32.7292 33.7405 32.8413 33.9647 33.0655L36.8792 35.98C37.1034 36.2042 37.2155 36.4657 37.2155 36.7646C37.2155 37.0636 37.1034 37.3251 36.8792 37.5493L33.9647 40.4638C33.7405 40.688 33.479 40.8 33.18 40.8C32.8811 40.8 32.6196 40.688 32.3954 40.4638Z" fill="#DDB565"/>
</svg>
